<?xml version="1.0" encoding="utf-8"?>
<!-- Generator: Adobe Illustrator 26.0.2, SVG Export Plug-In . SVG Version: 6.00 Build 0)  -->
<svg version="1.1" id="Layer_1" xmlns="http://www.w3.org/2000/svg" xmlns:xlink="http://www.w3.org/1999/xlink" x="0px" y="0px"
	 viewBox="0 0 930.6 931" style="enable-background:new 0 0 930.6 931;" xml:space="preserve">
<style type="text/css">
	.st0{fill:none;}
	.st1{clip-path:url(#SVGID_00000137097376881845737960000004999392913592584331_);}
	.st2{fill:#283312;}
	.st3{fill:#BF000A;}
	.st4{fill:#EDBB8A;}
	.st5{fill:#FFC54F;}
	.st6{fill:#6B0400;}
	.st7{clip-path:url(#SVGID_00000158732669030642646000000008599944912187140007_);}
	.st8{clip-path:url(#SVGID_00000116927021562929479200000010566176561412040884_);}
	.st9{fill:url(#SVGID_00000091006680200782201000000003961438039676228754_);}
	.st10{clip-path:url(#SVGID_00000023985767798039235660000018432835998769184950_);}
</style>
<pattern  y="931" width="100" height="140" patternUnits="userSpaceOnUse" id="SVGID_0000005566848261271319102" viewBox="25 -175 100 140" style="overflow:visible;">
	<g>
		<rect x="25" y="-175" class="st0" width="100" height="140"/>
		<g>
			<rect x="25" y="-175" class="st0" width="100" height="140"/>
			<rect x="25" y="-175" class="st0" width="100" height="140"/>
			<g>
				<g>
					<defs>
						<rect id="SVGID_1_" x="25" y="-175" width="100" height="140"/>
					</defs>
					<clipPath id="SVGID_00000050664895567037662260000009588378879587243923_">
						<use xlink:href="#SVGID_1_"  style="overflow:visible;"/>
					</clipPath>
					<g style="clip-path:url(#SVGID_00000050664895567037662260000009588378879587243923_);">
						<polygon class="st2" points="175,-175 170.2,-181.7 162.8,-192.1 162.2,-192.9 154.8,-203.2 150,-210 137.8,-192.9 
							137.2,-192.1 125,-175 129.8,-168.3 137.2,-157.9 137.8,-157.1 145.2,-146.8 150,-140 162.2,-157.1 162.8,-157.9 						"/>
						<polygon class="st3" points="125,-175 120.2,-181.7 112.8,-192.1 112.2,-192.9 104.8,-203.2 100,-210 87.8,-192.9 
							87.2,-192.1 75,-175 79.8,-168.3 87.2,-157.9 87.8,-157.1 95.2,-146.8 100,-140 112.2,-157.1 112.8,-157.9 						"/>
						<polygon class="st2" points="75,-175 70.2,-181.7 62.8,-192.1 62.2,-192.9 54.8,-203.2 50,-210 37.8,-192.9 37.2,-192.1 
							25,-175 29.8,-168.3 37.2,-157.9 37.8,-157.1 45.2,-146.8 50,-140 62.2,-157.1 62.8,-157.9 						"/>
						<polygon class="st4" points="60.7,-195.1 60,-195.9 35,-160.9 35.7,-160.1 						"/>
						<polygon class="st4" points="64.9,-189.1 64.3,-189.9 39.3,-154.9 40,-154.1 						"/>
						<polygon class="st5" points="62.8,-192.1 62.2,-192.9 50,-175.9 49.4,-175 37.2,-157.9 37.8,-157.1 50,-174.1 50.6,-175 
													"/>
						<polygon class="st4" points="39.3,-195.1 40,-195.9 64.9,-160.9 64.3,-160.1 						"/>
						<polygon class="st4" points="35,-189.1 35.6,-189.9 60.6,-154.9 60,-154.1 						"/>
						<polygon class="st5" points="37.2,-192.1 37.8,-192.9 50,-175.9 50.6,-175 62.8,-157.9 62.2,-157.1 50,-174.1 49.4,-175 
													"/>
						<polygon class="st2" points="110.7,-195.1 110,-195.9 85,-160.9 85.7,-160.1 						"/>
						<polygon class="st2" points="114.9,-189.1 114.3,-189.9 89.3,-154.9 89.9,-154.1 						"/>
						<polygon class="st2" points="89.3,-195.1 89.9,-195.9 114.9,-160.9 114.3,-160.1 						"/>
						<polygon class="st2" points="85,-189.1 85.6,-189.9 110.6,-154.9 110,-154.1 						"/>
						<polygon class="st6" points="87.2,-192.1 87.8,-192.9 100,-175.9 100.6,-175 112.8,-157.9 112.2,-157.1 100,-174.1 99.4,-175 
													"/>
						<polygon class="st6" points="112.8,-192.1 112.2,-192.9 100,-175.9 99.4,-175 87.2,-157.9 87.8,-157.1 100,-174.1 100.6,-175 
													"/>
						<polygon class="st2" points="51.1,-141.6 48.8,-141.6 49.7,-140.4 50.3,-140.4 						"/>
						<polygon class="st2" points="52.9,-144.1 47.1,-144.1 47.9,-142.9 52.1,-142.9 						"/>
						<polygon class="st2" points="54.7,-146.6 45.3,-146.6 46.1,-145.4 53.9,-145.4 						"/>
						<polygon class="st2" points="56.5,-149.1 43.5,-149.1 44.3,-147.9 55.6,-147.9 						"/>
						<polygon class="st2" points="58.3,-151.6 41.7,-151.6 42.6,-150.4 57.4,-150.4 						"/>
						<polygon class="st2" points="60.1,-154.1 39.9,-154.1 40.8,-152.9 59.2,-152.9 						"/>
						<polygon class="st2" points="61.8,-156.6 38.1,-156.6 39,-155.4 61,-155.4 						"/>
						<polygon class="st2" points="63.7,-159.1 36.3,-159.1 37.2,-157.9 37.2,-157.9 62.8,-157.9 62.8,-157.9 						"/>
						<polygon class="st2" points="65.4,-161.6 34.5,-161.6 35.4,-160.4 64.6,-160.4 						"/>
						<polygon class="st2" points="67.2,-164.1 32.8,-164.1 33.6,-162.9 66.3,-162.9 						"/>
						<polygon class="st2" points="69,-166.6 31,-166.6 31.8,-165.4 68.2,-165.4 						"/>
						<polygon class="st2" points="70.8,-169.1 29.2,-169.1 29.8,-168.3 30.1,-167.9 69.9,-167.9 						"/>
						<polygon class="st2" points="72.6,-171.6 27.4,-171.6 28.3,-170.4 71.7,-170.4 						"/>
						<polygon class="st2" points="74.3,-174.1 25.6,-174.1 26.5,-172.9 73.5,-172.9 						"/>
						<polygon class="st3" points="101.2,-141.6 98.8,-141.6 99.7,-140.4 100.3,-140.4 						"/>
						<polygon class="st3" points="102.9,-144.1 97.1,-144.1 97.9,-142.9 102.1,-142.9 						"/>
						<polygon class="st3" points="104.7,-146.6 95.3,-146.6 96.1,-145.4 103.9,-145.4 						"/>
						<polygon class="st3" points="106.5,-149.1 93.5,-149.1 94.3,-147.9 105.7,-147.9 						"/>
						<polygon class="st3" points="108.3,-151.6 91.7,-151.6 92.6,-150.4 107.4,-150.4 						"/>
						<polygon class="st3" points="110.1,-154.1 89.9,-154.1 90.8,-152.9 109.2,-152.9 						"/>
						<polygon class="st3" points="111.9,-156.6 88.1,-156.6 89,-155.4 111,-155.4 						"/>
						<polygon class="st3" points="113.7,-159.1 86.3,-159.1 87.2,-157.9 87.2,-157.9 112.8,-157.9 112.8,-157.9 						"/>
						<polygon class="st3" points="115.4,-161.6 84.6,-161.6 85.4,-160.4 114.6,-160.4 						"/>
						<polygon class="st3" points="117.2,-164.1 82.8,-164.1 83.6,-162.9 116.4,-162.9 						"/>
						<polygon class="st3" points="119,-166.6 81,-166.6 81.8,-165.4 118.2,-165.4 						"/>
						<polygon class="st3" points="120.8,-169.1 79.2,-169.1 79.8,-168.3 80.1,-167.9 119.9,-167.9 						"/>
						<polygon class="st3" points="122.6,-171.6 77.4,-171.6 78.3,-170.4 121.7,-170.4 						"/>
						<polygon class="st3" points="124.4,-174.1 75.6,-174.1 76.5,-172.9 123.5,-172.9 						"/>
						<polygon class="st2" points="175,-35 170.2,-41.7 162.8,-52.1 162.2,-52.9 154.8,-63.2 150,-70 137.8,-52.9 137.2,-52.1 
							125,-35 129.8,-28.3 137.2,-17.9 137.8,-17.1 145.2,-6.8 150,0 162.2,-17.1 162.8,-17.9 						"/>
						<polygon class="st6" points="150,-70 145.2,-76.7 137.8,-87.1 137.2,-87.9 129.8,-98.2 125,-105 112.8,-87.9 112.2,-87.1 
							100,-70 104.8,-63.3 112.2,-52.9 112.8,-52.1 120.2,-41.8 125,-35 137.2,-52.1 137.8,-52.9 						"/>
						<polygon class="st3" points="126.1,-36.6 123.8,-36.6 124.7,-35.4 125.3,-35.4 						"/>
						<polygon class="st3" points="127.9,-39.1 122.1,-39.1 122.9,-37.9 127.1,-37.9 						"/>
						<polygon class="st3" points="129.7,-41.6 120.3,-41.6 121.1,-40.4 128.9,-40.4 						"/>
						<polygon class="st3" points="131.5,-44.1 118.5,-44.1 119.3,-42.9 130.6,-42.9 						"/>
						<polygon class="st3" points="133.3,-46.6 116.7,-46.6 117.6,-45.4 132.4,-45.4 						"/>
						<polygon class="st3" points="135.1,-49.1 114.9,-49.1 115.8,-47.9 134.2,-47.9 						"/>
						<polygon class="st3" points="136.9,-51.6 113.1,-51.6 114,-50.4 136,-50.4 						"/>
						<polygon class="st3" points="138.6,-54.1 111.3,-54.1 112.2,-52.9 112.2,-52.9 137.8,-52.9 137.8,-52.9 						"/>
						<polygon class="st3" points="140.4,-56.6 109.6,-56.6 110.4,-55.4 139.6,-55.4 						"/>
						<polygon class="st3" points="142.2,-59.1 107.8,-59.1 108.6,-57.9 141.4,-57.9 						"/>
						<polygon class="st3" points="144,-61.6 106,-61.6 106.8,-60.4 143.1,-60.4 						"/>
						<polygon class="st3" points="145.8,-64.1 104.2,-64.1 104.8,-63.3 105.1,-62.9 144.9,-62.9 						"/>
						<polygon class="st3" points="147.6,-66.6 102.4,-66.6 103.3,-65.4 146.7,-65.4 						"/>
						<polygon class="st3" points="149.4,-69.1 100.6,-69.1 101.5,-67.9 148.5,-67.9 						"/>
						<polygon class="st3" points="149.7,-70.4 148.8,-71.6 101.1,-71.6 100.3,-70.4 						"/>
						<polygon class="st3" points="147.9,-72.9 147.1,-74.1 102.9,-74.1 102.1,-72.9 						"/>
						<polygon class="st3" points="146.1,-75.4 145.3,-76.6 104.7,-76.6 103.8,-75.4 						"/>
						<polygon class="st3" points="144.3,-77.9 143.5,-79.1 106.5,-79.1 105.6,-77.9 						"/>
						<polygon class="st3" points="142.6,-80.4 141.7,-81.6 108.3,-81.6 107.4,-80.4 						"/>
						<polygon class="st3" points="140.8,-82.9 139.9,-84.1 110.1,-84.1 109.2,-82.9 						"/>
						<polygon class="st3" points="139,-85.4 138.1,-86.6 111.8,-86.6 111,-85.4 						"/>
						<polygon class="st3" points="137.2,-87.9 137.2,-87.9 136.3,-89.1 113.6,-89.1 112.8,-87.9 112.8,-87.9 						"/>
						<polygon class="st3" points="135.4,-90.4 134.6,-91.6 115.4,-91.6 114.6,-90.4 						"/>
						<polygon class="st3" points="133.6,-92.9 132.8,-94.1 117.2,-94.1 116.3,-92.9 						"/>
						<polygon class="st3" points="131.8,-95.4 131,-96.6 119,-96.6 118.1,-95.4 						"/>
						<polygon class="st3" points="130.1,-97.9 129.8,-98.2 129.2,-99.1 120.8,-99.1 119.9,-97.9 						"/>
						<polygon class="st3" points="128.3,-100.4 127.4,-101.6 122.6,-101.6 121.7,-100.4 						"/>
						<polygon class="st3" points="126.5,-102.9 125.6,-104.1 124.3,-104.1 123.5,-102.9 						"/>
						<polygon class="st4" points="114.3,-90.1 114.9,-90.9 139.9,-55.9 139.3,-55.1 						"/>
						<polygon class="st4" points="110,-84.1 110.6,-84.9 135.6,-49.9 135,-49.1 						"/>
						<polygon class="st5" points="112.2,-87.1 112.8,-87.9 125,-70.9 125.6,-70 137.8,-52.9 137.2,-52.1 125,-69.1 124.4,-70 
													"/>
						<polygon class="st2" points="135.6,-90.1 135,-90.9 110,-55.9 110.7,-55.1 						"/>
						<polygon class="st2" points="139.9,-84.1 139.3,-84.9 114.3,-49.9 114.9,-49.1 						"/>
						<polygon class="st6" points="137.8,-87.1 137.2,-87.9 125,-70.9 124.4,-70 112.2,-52.9 112.8,-52.1 125,-69.1 125.6,-70 
													"/>
						<polygon class="st6" points="150,-140 145.2,-146.7 137.8,-157.1 137.2,-157.9 129.8,-168.2 125,-175 112.8,-157.9 
							112.2,-157.1 100,-140 104.8,-133.3 112.2,-122.9 112.8,-122.1 120.2,-111.8 125,-105 137.2,-122.1 137.8,-122.9 						"/>
						<polygon class="st3" points="126.1,-106.6 123.8,-106.6 124.7,-105.4 125.3,-105.4 						"/>
						<polygon class="st3" points="127.9,-109.1 122.1,-109.1 122.9,-107.9 127.1,-107.9 						"/>
						<polygon class="st3" points="129.7,-111.6 120.3,-111.6 121.1,-110.4 128.9,-110.4 						"/>
						<polygon class="st3" points="131.5,-114.1 118.5,-114.1 119.3,-112.9 130.6,-112.9 						"/>
						<polygon class="st3" points="133.3,-116.6 116.7,-116.6 117.6,-115.4 132.4,-115.4 						"/>
						<polygon class="st3" points="135.1,-119.1 114.9,-119.1 115.8,-117.9 134.2,-117.9 						"/>
						<polygon class="st3" points="136.9,-121.6 113.1,-121.6 114,-120.4 136,-120.4 						"/>
						<polygon class="st3" points="138.6,-124.1 111.3,-124.1 112.2,-122.9 112.2,-122.9 137.8,-122.9 137.8,-122.9 						"/>
						<polygon class="st3" points="140.4,-126.6 109.6,-126.6 110.4,-125.4 139.6,-125.4 						"/>
						<polygon class="st3" points="142.2,-129.1 107.8,-129.1 108.6,-127.9 141.4,-127.9 						"/>
						<polygon class="st3" points="144,-131.6 106,-131.6 106.8,-130.4 143.1,-130.4 						"/>
						<polygon class="st3" points="145.8,-134.1 104.2,-134.1 104.8,-133.3 105.1,-132.9 144.9,-132.9 						"/>
						<polygon class="st3" points="147.6,-136.6 102.4,-136.6 103.3,-135.4 146.7,-135.4 						"/>
						<polygon class="st3" points="149.4,-139.1 100.6,-139.1 101.5,-137.9 148.5,-137.9 						"/>
						<polygon class="st3" points="149.7,-140.4 148.8,-141.6 101.1,-141.6 100.3,-140.4 						"/>
						<polygon class="st3" points="147.9,-142.9 147.1,-144.1 102.9,-144.1 102.1,-142.9 						"/>
						<polygon class="st3" points="146.1,-145.4 145.3,-146.6 104.7,-146.6 103.8,-145.4 						"/>
						<polygon class="st3" points="144.3,-147.9 143.5,-149.1 106.5,-149.1 105.6,-147.9 						"/>
						<polygon class="st3" points="142.6,-150.4 141.7,-151.6 108.3,-151.6 107.4,-150.4 						"/>
						<polygon class="st3" points="140.8,-152.9 139.9,-154.1 110.1,-154.1 109.2,-152.9 						"/>
						<polygon class="st3" points="139,-155.4 138.1,-156.6 111.8,-156.6 111,-155.4 						"/>
						<polygon class="st3" points="137.2,-157.9 137.2,-157.9 136.3,-159.1 113.6,-159.1 112.8,-157.9 112.8,-157.9 						"/>
						<polygon class="st3" points="135.4,-160.4 134.6,-161.6 115.4,-161.6 114.6,-160.4 						"/>
						<polygon class="st3" points="133.6,-162.9 132.8,-164.1 117.2,-164.1 116.3,-162.9 						"/>
						<polygon class="st3" points="131.8,-165.4 131,-166.6 119,-166.6 118.1,-165.4 						"/>
						<polygon class="st3" points="130.1,-167.9 129.8,-168.2 129.2,-169.1 120.8,-169.1 119.9,-167.9 						"/>
						<polygon class="st3" points="128.3,-170.4 127.4,-171.6 122.6,-171.6 121.7,-170.4 						"/>
						<polygon class="st3" points="126.5,-172.9 125.6,-174.1 124.3,-174.1 123.5,-172.9 						"/>
						<polygon class="st2" points="114.3,-160.1 114.9,-160.9 139.9,-125.9 139.3,-125.1 						"/>
						<polygon class="st2" points="110,-154.1 110.6,-154.9 135.6,-119.9 135,-119.1 						"/>
						<polygon class="st6" points="112.2,-157.1 112.8,-157.9 125,-140.9 125.6,-140 137.8,-122.9 137.2,-122.1 125,-139.1 
							124.4,-140 						"/>
						<polygon class="st4" points="135.6,-160.1 135,-160.9 110,-125.9 110.7,-125.1 						"/>
						<polygon class="st4" points="139.9,-154.1 139.3,-154.9 114.3,-119.9 114.9,-119.1 						"/>
						<polygon class="st5" points="137.8,-157.1 137.2,-157.9 125,-140.9 124.4,-140 112.2,-122.9 112.8,-122.1 125,-139.1 
							125.6,-140 						"/>
						<polygon class="st3" points="175,-105 170.2,-111.7 162.8,-122.1 162.2,-122.9 154.8,-133.2 150,-140 137.8,-122.9 
							137.2,-122.1 125,-105 129.8,-98.3 137.2,-87.9 137.8,-87.1 145.2,-76.8 150,-70 162.2,-87.1 162.8,-87.9 						"/>
						<polygon class="st3" points="125,-35 120.2,-41.7 112.8,-52.1 112.2,-52.9 104.8,-63.2 100,-70 87.8,-52.9 87.2,-52.1 75,-35 
							79.8,-28.3 87.2,-17.9 87.8,-17.1 95.2,-6.8 100,0 112.2,-17.1 112.8,-17.9 						"/>
						<polygon class="st6" points="100,-70 95.2,-76.7 87.8,-87.1 87.2,-87.9 79.8,-98.2 75,-105 62.8,-87.9 62.2,-87.1 50,-70 
							54.8,-63.3 62.2,-52.9 62.8,-52.1 70.2,-41.8 75,-35 87.2,-52.1 87.8,-52.9 						"/>
						<polygon class="st3" points="76.2,-36.6 73.8,-36.6 74.7,-35.4 75.3,-35.4 						"/>
						<polygon class="st3" points="77.9,-39.1 72.1,-39.1 72.9,-37.9 77.1,-37.9 						"/>
						<polygon class="st3" points="79.7,-41.6 70.3,-41.6 71.1,-40.4 78.8,-40.4 						"/>
						<polygon class="st3" points="81.5,-44.1 68.5,-44.1 69.3,-42.9 80.7,-42.9 						"/>
						<polygon class="st3" points="83.3,-46.6 66.7,-46.6 67.6,-45.4 82.4,-45.4 						"/>
						<polygon class="st3" points="85.1,-49.1 64.9,-49.1 65.8,-47.9 84.2,-47.9 						"/>
						<polygon class="st3" points="86.8,-51.6 63.1,-51.6 64,-50.4 86,-50.4 						"/>
						<polygon class="st3" points="88.7,-54.1 61.3,-54.1 62.2,-52.9 62.2,-52.9 87.8,-52.9 87.8,-52.9 						"/>
						<polygon class="st3" points="90.4,-56.6 59.5,-56.6 60.4,-55.4 89.6,-55.4 						"/>
						<polygon class="st3" points="92.2,-59.1 57.8,-59.1 58.6,-57.9 91.4,-57.9 						"/>
						<polygon class="st3" points="94,-61.6 56,-61.6 56.8,-60.4 93.1,-60.4 						"/>
						<polygon class="st3" points="95.8,-64.1 54.2,-64.1 54.8,-63.3 55.1,-62.9 94.9,-62.9 						"/>
						<polygon class="st3" points="97.6,-66.6 52.4,-66.6 53.3,-65.4 96.7,-65.4 						"/>
						<polygon class="st3" points="99.4,-69.1 50.6,-69.1 51.5,-67.9 98.5,-67.9 						"/>
						<polygon class="st3" points="99.7,-70.4 98.8,-71.6 51.1,-71.6 50.3,-70.4 						"/>
						<polygon class="st3" points="97.9,-72.9 97.1,-74.1 52.9,-74.1 52.1,-72.9 						"/>
						<polygon class="st3" points="96.1,-75.4 95.3,-76.6 54.7,-76.6 53.9,-75.4 						"/>
						<polygon class="st3" points="94.3,-77.9 93.5,-79.1 56.5,-79.1 55.6,-77.9 						"/>
						<polygon class="st3" points="92.6,-80.4 91.7,-81.6 58.3,-81.6 57.4,-80.4 						"/>
						<polygon class="st3" points="90.8,-82.9 89.9,-84.1 60.1,-84.1 59.2,-82.9 						"/>
						<polygon class="st3" points="89,-85.4 88.1,-86.6 61.8,-86.6 61,-85.4 						"/>
						<polygon class="st3" points="87.2,-87.9 87.2,-87.9 86.3,-89.1 63.7,-89.1 62.8,-87.9 62.8,-87.9 						"/>
						<polygon class="st3" points="85.4,-90.4 84.6,-91.6 65.4,-91.6 64.6,-90.4 						"/>
						<polygon class="st3" points="83.6,-92.9 82.8,-94.1 67.2,-94.1 66.3,-92.9 						"/>
						<polygon class="st3" points="81.8,-95.4 81,-96.6 69,-96.6 68.2,-95.4 						"/>
						<polygon class="st3" points="80.1,-97.9 79.8,-98.2 79.2,-99.1 70.8,-99.1 69.9,-97.9 						"/>
						<polygon class="st3" points="78.3,-100.4 77.4,-101.6 72.6,-101.6 71.7,-100.4 						"/>
						<polygon class="st3" points="76.5,-102.9 75.6,-104.1 74.3,-104.1 73.5,-102.9 						"/>
						<polygon class="st2" points="75,-35 70.2,-41.7 62.8,-52.1 62.2,-52.9 54.8,-63.2 50,-70 37.8,-52.9 37.2,-52.1 25,-35 
							29.8,-28.3 37.2,-17.9 37.8,-17.1 45.2,-6.8 50,0 62.2,-17.1 62.8,-17.9 						"/>
						<polygon class="st4" points="60.7,-55.1 60,-55.9 35,-20.9 35.7,-20.1 						"/>
						<polygon class="st4" points="64.9,-49.1 64.3,-49.9 39.3,-14.9 40,-14.1 						"/>
						<polygon class="st5" points="62.8,-52.1 62.2,-52.9 50,-35.9 49.4,-35 37.2,-17.9 37.8,-17.1 50,-34.1 50.6,-35 						"/>
						<polygon class="st4" points="39.3,-55.1 40,-55.9 64.9,-20.9 64.3,-20.1 						"/>
						<polygon class="st4" points="35,-49.1 35.6,-49.9 60.6,-14.9 60,-14.1 						"/>
						<polygon class="st5" points="37.2,-52.1 37.8,-52.9 50,-35.9 50.6,-35 62.8,-17.9 62.2,-17.1 50,-34.1 49.4,-35 						"/>
						<polygon class="st2" points="110.7,-55.1 110,-55.9 85,-20.9 85.7,-20.1 						"/>
						<polygon class="st2" points="114.9,-49.1 114.3,-49.9 89.3,-14.9 89.9,-14.1 						"/>
						<polygon class="st2" points="89.3,-55.1 89.9,-55.9 114.9,-20.9 114.3,-20.1 						"/>
						<polygon class="st2" points="85,-49.1 85.6,-49.9 110.6,-14.9 110,-14.1 						"/>
						<polygon class="st6" points="87.2,-52.1 87.8,-52.9 100,-35.9 100.6,-35 112.8,-17.9 112.2,-17.1 100,-34.1 99.4,-35 						
							"/>
						<polygon class="st6" points="112.8,-52.1 112.2,-52.9 100,-35.9 99.4,-35 87.2,-17.9 87.8,-17.1 100,-34.1 100.6,-35 						
							"/>
						<polygon class="st2" points="64.3,-90.1 64.9,-90.9 89.9,-55.9 89.3,-55.1 						"/>
						<polygon class="st2" points="60,-84.1 60.6,-84.9 85.6,-49.9 85,-49.1 						"/>
						<polygon class="st6" points="62.2,-87.1 62.8,-87.9 75,-70.9 75.6,-70 87.8,-52.9 87.2,-52.1 75,-69.1 74.4,-70 						"/>
						<polygon class="st4" points="85.7,-90.1 85,-90.9 60,-55.9 60.7,-55.1 						"/>
						<polygon class="st4" points="89.9,-84.1 89.3,-84.9 64.3,-49.9 64.9,-49.1 						"/>
						<polygon class="st5" points="87.8,-87.1 87.2,-87.9 75,-70.9 74.4,-70 62.2,-52.9 62.8,-52.1 75,-69.1 75.6,-70 						"/>
						<polygon class="st6" points="50,-70 45.2,-76.7 37.8,-87.1 37.2,-87.9 29.8,-98.2 25,-105 12.8,-87.9 12.2,-87.1 0,-70 
							4.8,-63.3 12.2,-52.9 12.8,-52.1 20.2,-41.8 25,-35 37.2,-52.1 37.8,-52.9 						"/>
						<polygon class="st3" points="26.1,-36.6 23.8,-36.6 24.7,-35.4 25.3,-35.4 						"/>
						<polygon class="st3" points="27.9,-39.1 22.1,-39.1 22.9,-37.9 27.1,-37.9 						"/>
						<polygon class="st3" points="29.7,-41.6 20.3,-41.6 21.1,-40.4 28.9,-40.4 						"/>
						<polygon class="st3" points="31.5,-44.1 18.5,-44.1 19.3,-42.9 30.6,-42.9 						"/>
						<polygon class="st3" points="33.3,-46.6 16.7,-46.6 17.6,-45.4 32.4,-45.4 						"/>
						<polygon class="st3" points="35.1,-49.1 14.9,-49.1 15.8,-47.9 34.2,-47.9 						"/>
						<polygon class="st3" points="36.9,-51.6 13.1,-51.6 14,-50.4 36,-50.4 						"/>
						<polygon class="st3" points="38.6,-54.1 11.4,-54.1 12.2,-52.9 12.2,-52.9 37.8,-52.9 37.8,-52.9 						"/>
						<polygon class="st3" points="40.4,-56.6 9.6,-56.6 10.4,-55.4 39.6,-55.4 						"/>
						<polygon class="st3" points="42.2,-59.1 7.8,-59.1 8.6,-57.9 41.4,-57.9 						"/>
						<polygon class="st3" points="44,-61.6 6,-61.6 6.8,-60.4 43.1,-60.4 						"/>
						<polygon class="st3" points="45.8,-64.1 4.2,-64.1 4.8,-63.3 5.1,-62.9 44.9,-62.9 						"/>
						<polygon class="st3" points="47.6,-66.6 2.4,-66.6 3.3,-65.4 46.7,-65.4 						"/>
						<polygon class="st3" points="49.4,-69.1 0.6,-69.1 1.5,-67.9 48.5,-67.9 						"/>
						<polygon class="st3" points="49.7,-70.4 48.8,-71.6 1.1,-71.6 0.3,-70.4 						"/>
						<polygon class="st3" points="47.9,-72.9 47,-74.1 2.9,-74.1 2.1,-72.9 						"/>
						<polygon class="st3" points="46.1,-75.4 45.3,-76.6 4.7,-76.6 3.9,-75.4 						"/>
						<polygon class="st3" points="44.3,-77.9 43.5,-79.1 6.5,-79.1 5.6,-77.9 						"/>
						<polygon class="st3" points="42.5,-80.4 41.7,-81.6 8.3,-81.6 7.4,-80.4 						"/>
						<polygon class="st3" points="40.8,-82.9 39.9,-84.1 10.1,-84.1 9.2,-82.9 						"/>
						<polygon class="st3" points="39,-85.4 38.1,-86.6 11.9,-86.6 11,-85.4 						"/>
						<polygon class="st3" points="37.2,-87.9 37.2,-87.9 36.3,-89.1 13.6,-89.1 12.8,-87.9 12.8,-87.9 						"/>
						<polygon class="st3" points="35.4,-90.4 34.5,-91.6 15.4,-91.6 14.6,-90.4 						"/>
						<polygon class="st3" points="33.6,-92.9 32.8,-94.1 17.2,-94.1 16.4,-92.9 						"/>
						<polygon class="st3" points="31.8,-95.4 31,-96.6 19,-96.6 18.1,-95.4 						"/>
						<polygon class="st3" points="30,-97.9 29.8,-98.2 29.2,-99.1 20.8,-99.1 19.9,-97.9 						"/>
						<polygon class="st3" points="28.3,-100.4 27.4,-101.6 22.6,-101.6 21.7,-100.4 						"/>
						<polygon class="st3" points="26.5,-102.9 25.6,-104.1 24.4,-104.1 23.5,-102.9 						"/>
						<polygon class="st4" points="14.3,-90.1 14.9,-90.9 40,-55.9 39.3,-55.1 						"/>
						<polygon class="st4" points="10,-84.1 10.6,-84.9 35.6,-49.9 35,-49.1 						"/>
						<polygon class="st5" points="12.2,-87.1 12.8,-87.9 25,-70.9 25.6,-70 37.8,-52.9 37.2,-52.1 25,-69.1 24.4,-70 						"/>
						<polygon class="st2" points="35.7,-90.1 35,-90.9 10,-55.9 10.6,-55.1 						"/>
						<polygon class="st2" points="40,-84.1 39.3,-84.9 14.3,-49.9 14.9,-49.1 						"/>
						<polygon class="st6" points="37.8,-87.1 37.2,-87.9 25,-70.9 24.4,-70 12.2,-52.9 12.8,-52.1 25,-69.1 25.6,-70 						"/>
						<polygon class="st6" points="100,-140 95.2,-146.7 87.8,-157.1 87.2,-157.9 79.8,-168.2 75,-175 62.8,-157.9 62.2,-157.1 
							50,-140 54.8,-133.3 62.2,-122.9 62.8,-122.1 70.2,-111.8 75,-105 87.2,-122.1 87.8,-122.9 						"/>
						<polygon class="st3" points="76.2,-106.6 73.8,-106.6 74.7,-105.4 75.3,-105.4 						"/>
						<polygon class="st3" points="77.9,-109.1 72.1,-109.1 72.9,-107.9 77.1,-107.9 						"/>
						<polygon class="st3" points="79.7,-111.6 70.3,-111.6 71.1,-110.4 78.8,-110.4 						"/>
						<polygon class="st3" points="81.5,-114.1 68.5,-114.1 69.3,-112.9 80.7,-112.9 						"/>
						<polygon class="st3" points="83.3,-116.6 66.7,-116.6 67.6,-115.4 82.4,-115.4 						"/>
						<polygon class="st3" points="85.1,-119.1 64.9,-119.1 65.8,-117.9 84.2,-117.9 						"/>
						<polygon class="st3" points="86.8,-121.6 63.1,-121.6 64,-120.4 86,-120.4 						"/>
						<polygon class="st3" points="88.7,-124.1 61.3,-124.1 62.2,-122.9 62.2,-122.9 87.8,-122.9 87.8,-122.9 						"/>
						<polygon class="st3" points="90.4,-126.6 59.5,-126.6 60.4,-125.4 89.6,-125.4 						"/>
						<polygon class="st3" points="92.2,-129.1 57.8,-129.1 58.6,-127.9 91.4,-127.9 						"/>
						<polygon class="st3" points="94,-131.6 56,-131.6 56.8,-130.4 93.1,-130.4 						"/>
						<polygon class="st3" points="95.8,-134.1 54.2,-134.1 54.8,-133.3 55.1,-132.9 94.9,-132.9 						"/>
						<polygon class="st3" points="97.6,-136.6 52.4,-136.6 53.3,-135.4 96.7,-135.4 						"/>
						<polygon class="st3" points="99.4,-139.1 50.6,-139.1 51.5,-137.9 98.5,-137.9 						"/>
						<polygon class="st3" points="99.7,-140.4 98.8,-141.6 51.1,-141.6 50.3,-140.4 						"/>
						<polygon class="st3" points="97.9,-142.9 97.1,-144.1 52.9,-144.1 52.1,-142.9 						"/>
						<polygon class="st3" points="96.1,-145.4 95.3,-146.6 54.7,-146.6 53.9,-145.4 						"/>
						<polygon class="st3" points="94.3,-147.9 93.5,-149.1 56.5,-149.1 55.6,-147.9 						"/>
						<polygon class="st3" points="92.6,-150.4 91.7,-151.6 58.3,-151.6 57.4,-150.4 						"/>
						<polygon class="st3" points="90.8,-152.9 89.9,-154.1 60.1,-154.1 59.2,-152.9 						"/>
						<polygon class="st3" points="89,-155.4 88.1,-156.6 61.8,-156.6 61,-155.4 						"/>
						<polygon class="st3" points="87.2,-157.9 87.2,-157.9 86.3,-159.1 63.7,-159.1 62.8,-157.9 62.8,-157.9 						"/>
						<polygon class="st3" points="85.4,-160.4 84.6,-161.6 65.4,-161.6 64.6,-160.4 						"/>
						<polygon class="st3" points="83.6,-162.9 82.8,-164.1 67.2,-164.1 66.3,-162.9 						"/>
						<polygon class="st3" points="81.8,-165.4 81,-166.6 69,-166.6 68.2,-165.4 						"/>
						<polygon class="st3" points="80.1,-167.9 79.8,-168.2 79.2,-169.1 70.8,-169.1 69.9,-167.9 						"/>
						<polygon class="st3" points="78.3,-170.4 77.4,-171.6 72.6,-171.6 71.7,-170.4 						"/>
						<polygon class="st3" points="76.5,-172.9 75.6,-174.1 74.3,-174.1 73.5,-172.9 						"/>
						<polygon class="st4" points="64.3,-160.1 64.9,-160.9 89.9,-125.9 89.3,-125.1 						"/>
						<polygon class="st4" points="60,-154.1 60.6,-154.9 85.6,-119.9 85,-119.1 						"/>
						<polygon class="st5" points="62.2,-157.1 62.8,-157.9 75,-140.9 75.6,-140 87.8,-122.9 87.2,-122.1 75,-139.1 74.4,-140 
													"/>
						<polygon class="st2" points="85.7,-160.1 85,-160.9 60,-125.9 60.7,-125.1 						"/>
						<polygon class="st2" points="89.9,-154.1 89.3,-154.9 64.3,-119.9 64.9,-119.1 						"/>
						<polygon class="st6" points="87.8,-157.1 87.2,-157.9 75,-140.9 74.4,-140 62.2,-122.9 62.8,-122.1 75,-139.1 75.6,-140 
													"/>
						<polygon class="st6" points="50,-140 45.2,-146.7 37.8,-157.1 37.2,-157.9 29.8,-168.2 25,-175 12.8,-157.9 12.2,-157.1 
							0,-140 4.8,-133.3 12.2,-122.9 12.8,-122.1 20.2,-111.8 25,-105 37.2,-122.1 37.8,-122.9 						"/>
						<polygon class="st3" points="26.1,-106.6 23.8,-106.6 24.7,-105.4 25.3,-105.4 						"/>
						<polygon class="st3" points="27.9,-109.1 22.1,-109.1 22.9,-107.9 27.1,-107.9 						"/>
						<polygon class="st3" points="29.7,-111.6 20.3,-111.6 21.1,-110.4 28.9,-110.4 						"/>
						<polygon class="st3" points="31.5,-114.1 18.5,-114.1 19.3,-112.9 30.6,-112.9 						"/>
						<polygon class="st3" points="33.3,-116.6 16.7,-116.6 17.6,-115.4 32.4,-115.4 						"/>
						<polygon class="st3" points="35.1,-119.1 14.9,-119.1 15.8,-117.9 34.2,-117.9 						"/>
						<polygon class="st3" points="36.9,-121.6 13.1,-121.6 14,-120.4 36,-120.4 						"/>
						<polygon class="st3" points="38.6,-124.1 11.4,-124.1 12.2,-122.9 12.2,-122.9 37.8,-122.9 37.8,-122.9 						"/>
						<polygon class="st3" points="40.4,-126.6 9.6,-126.6 10.4,-125.4 39.6,-125.4 						"/>
						<polygon class="st3" points="42.2,-129.1 7.8,-129.1 8.6,-127.9 41.4,-127.9 						"/>
						<polygon class="st3" points="44,-131.6 6,-131.6 6.8,-130.4 43.1,-130.4 						"/>
						<polygon class="st3" points="45.8,-134.1 4.2,-134.1 4.8,-133.3 5.1,-132.9 44.9,-132.9 						"/>
						<polygon class="st3" points="47.6,-136.6 2.4,-136.6 3.3,-135.4 46.7,-135.4 						"/>
						<polygon class="st3" points="49.4,-139.1 0.6,-139.1 1.5,-137.9 48.5,-137.9 						"/>
						<polygon class="st3" points="49.7,-140.4 48.8,-141.6 1.1,-141.6 0.3,-140.4 						"/>
						<polygon class="st3" points="47.9,-142.9 47,-144.1 2.9,-144.1 2.1,-142.9 						"/>
						<polygon class="st3" points="46.1,-145.4 45.3,-146.6 4.7,-146.6 3.9,-145.4 						"/>
						<polygon class="st3" points="44.3,-147.9 43.5,-149.1 6.5,-149.1 5.6,-147.9 						"/>
						<polygon class="st3" points="42.5,-150.4 41.7,-151.6 8.3,-151.6 7.4,-150.4 						"/>
						<polygon class="st3" points="40.8,-152.9 39.9,-154.1 10.1,-154.1 9.2,-152.9 						"/>
						<polygon class="st3" points="39,-155.4 38.1,-156.6 11.9,-156.6 11,-155.4 						"/>
						<polygon class="st3" points="37.2,-157.9 37.2,-157.9 36.3,-159.1 13.6,-159.1 12.8,-157.9 12.8,-157.9 						"/>
						<polygon class="st3" points="35.4,-160.4 34.5,-161.6 15.4,-161.6 14.6,-160.4 						"/>
						<polygon class="st3" points="33.6,-162.9 32.8,-164.1 17.2,-164.1 16.4,-162.9 						"/>
						<polygon class="st3" points="31.8,-165.4 31,-166.6 19,-166.6 18.1,-165.4 						"/>
						<polygon class="st3" points="30,-167.9 29.8,-168.2 29.2,-169.1 20.8,-169.1 19.9,-167.9 						"/>
						<polygon class="st3" points="28.3,-170.4 27.4,-171.6 22.6,-171.6 21.7,-170.4 						"/>
						<polygon class="st3" points="26.5,-172.9 25.6,-174.1 24.4,-174.1 23.5,-172.9 						"/>
						<polygon class="st2" points="14.3,-160.1 14.9,-160.9 40,-125.9 39.3,-125.1 						"/>
						<polygon class="st2" points="10,-154.1 10.6,-154.9 35.6,-119.9 35,-119.1 						"/>
						<polygon class="st6" points="12.2,-157.1 12.8,-157.9 25,-140.9 25.6,-140 37.8,-122.9 37.2,-122.1 25,-139.1 24.4,-140 
													"/>
						<polygon class="st4" points="35.7,-160.1 35,-160.9 10,-125.9 10.6,-125.1 						"/>
						<polygon class="st4" points="40,-154.1 39.3,-154.9 14.3,-119.9 14.9,-119.1 						"/>
						<polygon class="st5" points="37.8,-157.1 37.2,-157.9 25,-140.9 24.4,-140 12.2,-122.9 12.8,-122.1 25,-139.1 25.6,-140 
													"/>
						<polygon class="st2" points="74.7,-35.4 73.8,-36.6 26.1,-36.6 25.3,-35.4 						"/>
						<polygon class="st2" points="72.9,-37.9 72.1,-39.1 27.9,-39.1 27.1,-37.9 						"/>
						<polygon class="st2" points="71.1,-40.4 70.3,-41.6 29.7,-41.6 28.9,-40.4 						"/>
						<polygon class="st2" points="69.3,-42.9 68.5,-44.1 31.5,-44.1 30.6,-42.9 						"/>
						<polygon class="st2" points="67.6,-45.4 66.7,-46.6 33.3,-46.6 32.4,-45.4 						"/>
						<polygon class="st2" points="65.8,-47.9 64.9,-49.1 35.1,-49.1 34.2,-47.9 						"/>
						<polygon class="st2" points="64,-50.4 63.1,-51.6 36.9,-51.6 36,-50.4 						"/>
						<polygon class="st2" points="62.2,-52.9 62.2,-52.9 61.3,-54.1 38.6,-54.1 37.8,-52.9 37.8,-52.9 						"/>
						<polygon class="st2" points="60.4,-55.4 59.5,-56.6 40.4,-56.6 39.6,-55.4 						"/>
						<polygon class="st2" points="58.6,-57.9 57.8,-59.1 42.2,-59.1 41.4,-57.9 						"/>
						<polygon class="st2" points="56.8,-60.4 56,-61.6 44,-61.6 43.1,-60.4 						"/>
						<polygon class="st2" points="55,-62.9 54.8,-63.2 54.2,-64.1 45.8,-64.1 44.9,-62.9 						"/>
						<polygon class="st2" points="53.3,-65.4 52.4,-66.6 47.6,-66.6 46.7,-65.4 						"/>
						<polygon class="st2" points="51.5,-67.9 50.6,-69.1 49.4,-69.1 48.5,-67.9 						"/>
						<polygon class="st2" points="125,-105 120.2,-111.7 112.8,-122.1 112.2,-122.9 104.8,-133.2 100,-140 87.8,-122.9 
							87.2,-122.1 75,-105 79.8,-98.3 87.2,-87.9 87.8,-87.1 95.2,-76.8 100,-70 112.2,-87.1 112.8,-87.9 						"/>
						<polygon class="st4" points="110.7,-125.1 110,-125.9 85,-90.9 85.7,-90.1 						"/>
						<polygon class="st4" points="114.9,-119.1 114.3,-119.9 89.3,-84.9 89.9,-84.1 						"/>
						<polygon class="st5" points="112.8,-122.1 112.2,-122.9 100,-105.9 99.4,-105 87.2,-87.9 87.8,-87.1 100,-104.1 100.6,-105 
													"/>
						<polygon class="st4" points="89.3,-125.1 89.9,-125.9 114.9,-90.9 114.3,-90.1 						"/>
						<polygon class="st4" points="85,-119.1 85.6,-119.9 110.6,-84.9 110,-84.1 						"/>
						<polygon class="st5" points="87.2,-122.1 87.8,-122.9 100,-105.9 100.6,-105 112.8,-87.9 112.2,-87.1 100,-104.1 99.4,-105 
													"/>
						<polygon class="st2" points="101.1,-71.6 98.8,-71.6 99.7,-70.4 100.3,-70.4 						"/>
						<polygon class="st2" points="102.9,-74.1 97.1,-74.1 97.9,-72.9 102.1,-72.9 						"/>
						<polygon class="st2" points="104.7,-76.6 95.3,-76.6 96.1,-75.4 103.9,-75.4 						"/>
						<polygon class="st2" points="106.5,-79.1 93.5,-79.1 94.3,-77.9 105.6,-77.9 						"/>
						<polygon class="st2" points="108.3,-81.6 91.7,-81.6 92.6,-80.4 107.4,-80.4 						"/>
						<polygon class="st2" points="110.1,-84.1 89.9,-84.1 90.8,-82.9 109.2,-82.9 						"/>
						<polygon class="st2" points="111.9,-86.6 88.1,-86.6 89,-85.4 111,-85.4 						"/>
						<polygon class="st2" points="113.6,-89.1 86.3,-89.1 87.2,-87.9 87.2,-87.9 112.8,-87.9 112.8,-87.9 						"/>
						<polygon class="st2" points="115.4,-91.6 84.6,-91.6 85.4,-90.4 114.6,-90.4 						"/>
						<polygon class="st2" points="117.2,-94.1 82.8,-94.1 83.6,-92.9 116.4,-92.9 						"/>
						<polygon class="st2" points="119,-96.6 81,-96.6 81.8,-95.4 118.1,-95.4 						"/>
						<polygon class="st2" points="120.8,-99.1 79.2,-99.1 79.8,-98.3 80.1,-97.9 119.9,-97.9 						"/>
						<polygon class="st2" points="122.6,-101.6 77.4,-101.6 78.3,-100.4 121.7,-100.4 						"/>
						<polygon class="st2" points="124.4,-104.1 75.6,-104.1 76.5,-102.9 123.5,-102.9 						"/>
						<polygon class="st2" points="124.7,-105.4 123.8,-106.6 76.2,-106.6 75.3,-105.4 						"/>
						<polygon class="st2" points="122.9,-107.9 122.1,-109.1 77.9,-109.1 77.1,-107.9 						"/>
						<polygon class="st2" points="121.1,-110.4 120.3,-111.6 79.7,-111.6 78.8,-110.4 						"/>
						<polygon class="st2" points="119.3,-112.9 118.5,-114.1 81.5,-114.1 80.7,-112.9 						"/>
						<polygon class="st2" points="117.6,-115.4 116.7,-116.6 83.3,-116.6 82.4,-115.4 						"/>
						<polygon class="st2" points="115.8,-117.9 114.9,-119.1 85.1,-119.1 84.2,-117.9 						"/>
						<polygon class="st2" points="114,-120.4 113.1,-121.6 86.8,-121.6 86,-120.4 						"/>
						<polygon class="st2" points="112.2,-122.9 112.2,-122.9 111.3,-124.1 88.7,-124.1 87.8,-122.9 87.8,-122.9 						"/>
						<polygon class="st2" points="110.4,-125.4 109.6,-126.6 90.4,-126.6 89.6,-125.4 						"/>
						<polygon class="st2" points="108.6,-127.9 107.8,-129.1 92.2,-129.1 91.4,-127.9 						"/>
						<polygon class="st2" points="106.8,-130.4 106,-131.6 94,-131.6 93.1,-130.4 						"/>
						<polygon class="st2" points="105.1,-132.9 104.8,-133.2 104.2,-134.1 95.8,-134.1 94.9,-132.9 						"/>
						<polygon class="st2" points="103.3,-135.4 102.4,-136.6 97.6,-136.6 96.7,-135.4 						"/>
						<polygon class="st2" points="101.5,-137.9 100.6,-139.1 99.4,-139.1 98.5,-137.9 						"/>
						<polygon class="st3" points="124.7,-35.4 123.8,-36.6 76.2,-36.6 75.3,-35.4 						"/>
						<polygon class="st3" points="122.9,-37.9 122.1,-39.1 77.9,-39.1 77.1,-37.9 						"/>
						<polygon class="st3" points="121.1,-40.4 120.3,-41.6 79.7,-41.6 78.9,-40.4 						"/>
						<polygon class="st3" points="119.3,-42.9 118.5,-44.1 81.5,-44.1 80.7,-42.9 						"/>
						<polygon class="st3" points="117.6,-45.4 116.7,-46.6 83.3,-46.6 82.4,-45.4 						"/>
						<polygon class="st3" points="115.8,-47.9 114.9,-49.1 85.1,-49.1 84.2,-47.9 						"/>
						<polygon class="st3" points="114,-50.4 113.1,-51.6 86.9,-51.6 86,-50.4 						"/>
						<polygon class="st3" points="112.2,-52.9 112.2,-52.9 111.3,-54.1 88.7,-54.1 87.8,-52.9 87.8,-52.9 						"/>
						<polygon class="st3" points="110.4,-55.4 109.6,-56.6 90.4,-56.6 89.6,-55.4 						"/>
						<polygon class="st3" points="108.6,-57.9 107.8,-59.1 92.2,-59.1 91.4,-57.9 						"/>
						<polygon class="st3" points="106.8,-60.4 106,-61.6 94,-61.6 93.2,-60.4 						"/>
						<polygon class="st3" points="105.1,-62.9 104.8,-63.2 104.2,-64.1 95.8,-64.1 94.9,-62.9 						"/>
						<polygon class="st3" points="103.3,-65.4 102.4,-66.6 97.6,-66.6 96.7,-65.4 						"/>
						<polygon class="st3" points="101.5,-67.9 100.6,-69.1 99.4,-69.1 98.5,-67.9 						"/>
						<polygon class="st3" points="75,-105 70.2,-111.7 62.8,-122.1 62.2,-122.9 54.8,-133.2 50,-140 37.8,-122.9 37.2,-122.1 
							25,-105 29.8,-98.3 37.2,-87.9 37.8,-87.1 45.2,-76.8 50,-70 62.2,-87.1 62.8,-87.9 						"/>
						<polygon class="st2" points="60.7,-125.1 60,-125.9 35,-90.9 35.7,-90.1 						"/>
						<polygon class="st2" points="64.9,-119.1 64.3,-119.9 39.3,-84.9 40,-84.1 						"/>
						<polygon class="st2" points="39.3,-125.1 40,-125.9 64.9,-90.9 64.3,-90.1 						"/>
						<polygon class="st2" points="35,-119.1 35.6,-119.9 60.6,-84.9 60,-84.1 						"/>
						<polygon class="st6" points="37.2,-122.1 37.8,-122.9 50,-105.9 50.6,-105 62.8,-87.9 62.2,-87.1 50,-104.1 49.4,-105 						
							"/>
						<polygon class="st6" points="62.8,-122.1 62.2,-122.9 50,-105.9 49.4,-105 37.2,-87.9 37.8,-87.1 50,-104.1 50.6,-105 						
							"/>
						<polygon class="st3" points="51.2,-71.6 48.8,-71.6 49.7,-70.4 50.3,-70.4 						"/>
						<polygon class="st3" points="52.9,-74.1 47.1,-74.1 47.9,-72.9 52.1,-72.9 						"/>
						<polygon class="st3" points="54.7,-76.6 45.3,-76.6 46.1,-75.4 53.9,-75.4 						"/>
						<polygon class="st3" points="56.5,-79.1 43.5,-79.1 44.3,-77.9 55.7,-77.9 						"/>
						<polygon class="st3" points="58.3,-81.6 41.7,-81.6 42.6,-80.4 57.4,-80.4 						"/>
						<polygon class="st3" points="60.1,-84.1 39.9,-84.1 40.8,-82.9 59.2,-82.9 						"/>
						<polygon class="st3" points="61.9,-86.6 38.1,-86.6 39,-85.4 61,-85.4 						"/>
						<polygon class="st3" points="63.7,-89.1 36.3,-89.1 37.2,-87.9 37.2,-87.9 62.8,-87.9 62.8,-87.9 						"/>
						<polygon class="st3" points="65.4,-91.6 34.6,-91.6 35.4,-90.4 64.6,-90.4 						"/>
						<polygon class="st3" points="67.2,-94.1 32.8,-94.1 33.6,-92.9 66.4,-92.9 						"/>
						<polygon class="st3" points="69,-96.6 31,-96.6 31.9,-95.4 68.2,-95.4 						"/>
						<polygon class="st3" points="70.8,-99.1 29.2,-99.1 29.8,-98.3 30.1,-97.9 69.9,-97.9 						"/>
						<polygon class="st3" points="72.6,-101.6 27.4,-101.6 28.3,-100.4 71.7,-100.4 						"/>
						<polygon class="st3" points="74.4,-104.1 25.6,-104.1 26.5,-102.9 73.5,-102.9 						"/>
						<polygon class="st3" points="74.7,-105.4 73.8,-106.6 26.1,-106.6 25.3,-105.4 						"/>
						<polygon class="st3" points="72.9,-107.9 72.1,-109.1 27.9,-109.1 27.1,-107.9 						"/>
						<polygon class="st3" points="71.1,-110.4 70.3,-111.6 29.7,-111.6 28.9,-110.4 						"/>
						<polygon class="st3" points="69.3,-112.9 68.5,-114.1 31.5,-114.1 30.6,-112.9 						"/>
						<polygon class="st3" points="67.6,-115.4 66.7,-116.6 33.3,-116.6 32.4,-115.4 						"/>
						<polygon class="st3" points="65.8,-117.9 64.9,-119.1 35.1,-119.1 34.2,-117.9 						"/>
						<polygon class="st3" points="64,-120.4 63.1,-121.6 36.9,-121.6 36,-120.4 						"/>
						<polygon class="st3" points="62.2,-122.9 62.2,-122.9 61.3,-124.1 38.7,-124.1 37.8,-122.9 37.8,-122.9 						"/>
						<polygon class="st3" points="60.4,-125.4 59.6,-126.6 40.4,-126.6 39.6,-125.4 						"/>
						<polygon class="st3" points="58.6,-127.9 57.8,-129.1 42.2,-129.1 41.4,-127.9 						"/>
						<polygon class="st3" points="56.8,-130.4 56,-131.6 44,-131.6 43.2,-130.4 						"/>
						<polygon class="st3" points="55.1,-132.9 54.8,-133.2 54.2,-134.1 45.8,-134.1 44.9,-132.9 						"/>
						<polygon class="st3" points="53.3,-135.4 52.4,-136.6 47.6,-136.6 46.7,-135.4 						"/>
						<polygon class="st3" points="51.5,-137.9 50.6,-139.1 49.4,-139.1 48.5,-137.9 						"/>
					</g>
				</g>
			</g>
		</g>
	</g>
</pattern>
<g>
	<g>
		<defs>
			<circle id="SVGID_00000093158012126103619570000012492082376239735172_" cx="465.3" cy="465.3" r="465.2"/>
		</defs>
		<clipPath id="SVGID_00000116219103114522034770000014054279210173012413_">
			<use xlink:href="#SVGID_00000093158012126103619570000012492082376239735172_"  style="overflow:visible;"/>
		</clipPath>
		<g style="clip-path:url(#SVGID_00000116219103114522034770000014054279210173012413_);">
			<g>
				<g>
					<defs>
						<rect id="SVGID_00000173866011614161986090000005335331114073494951_" x="-124" y="-124.1" width="1054.6" height="1054.6"/>
					</defs>
					<clipPath id="SVGID_00000099658731018065679260000011884587363886374806_">
						<use xlink:href="#SVGID_00000173866011614161986090000005335331114073494951_"  style="overflow:visible;"/>
					</clipPath>
					<g style="clip-path:url(#SVGID_00000099658731018065679260000011884587363886374806_);">
						
							<pattern  id="SVGID_00000140001933715957939910000012377595178327761341_" xlink:href="#SVGID_0000005566848261271319102" patternTransform="matrix(4.2158 0 0 -4.2158 52678.1602 -5930.9697)">
						</pattern>
						
							<rect x="-124" y="-124.1" style="fill:url(#SVGID_00000140001933715957939910000012377595178327761341_);" width="1054.6" height="1054.6"/>
					</g>
				</g>
			</g>
		</g>
	</g>
</g>
<g>
	<g>
		<defs>
			<path id="SVGID_00000103968096398319596290000004054492421859459774_" d="M469.8,223.2c-137.4-2.5-250.2,110.8-247,248.2
				c1.9,83.8,47,160.7,119.2,203.3c33.9,20.2,54.7,56.8,54.6,96.3v154.5c0,0.3,0.2,0.5,0.4,0.5c0,0,0,0,0.1,0
				c45.3,6.7,91.3,6.7,136.6,0c0.3,0,0.4-0.3,0.5-0.5V771c0-39.6,20.9-76.3,54.9-96.5c73.8-43.6,119-123,118.9-208.7
				C707.9,333.2,601.7,225.5,469.8,223.2z"/>
		</defs>
		<clipPath id="SVGID_00000158742163890028192320000009046422473557633678_">
			<use xlink:href="#SVGID_00000103968096398319596290000004054492421859459774_"  style="overflow:visible;"/>
		</clipPath>
		<g style="clip-path:url(#SVGID_00000158742163890028192320000009046422473557633678_);">
			
				<image style="overflow:visible;enable-background:new    ;" width="7441" height="4961" xlink:href="C:\Users\Future Machine 009\Downloads\simple-smooth-fabric-textured-background.jpg"  transform="matrix(0.4588 0 0 0.4588 -1300.7979 -712.4417)">
			</image>
		</g>
	</g>
</g>
</svg>
