<?xml version="1.0" encoding="utf-8"?>
<!-- Generator: Adobe Illustrator 26.0.2, SVG Export Plug-In . SVG Version: 6.00 Build 0)  -->
<svg version="1.1" id="Layer_1" xmlns="http://www.w3.org/2000/svg" xmlns:xlink="http://www.w3.org/1999/xlink" x="0px" y="0px"
	 viewBox="0 0 930.6 931" style="enable-background:new 0 0 930.6 931;" xml:space="preserve">
<style type="text/css">
	.st0{fill:none;}
	.st1{clip-path:url(#SVGID_00000026143821992687999280000004212403561170489002_);}
	.st2{fill:#283312;}
	.st3{fill:#BF000A;}
	.st4{fill:#EDBB8A;}
	.st5{fill:#FFC54F;}
	.st6{fill:#6B0400;}
	.st7{clip-path:url(#SVGID_00000006687360356724783530000011590792638131356841_);}
	.st8{clip-path:url(#SVGID_00000008117622049285316240000010459847548973106589_);}
	.st9{fill:url(#SVGID_00000047032934646582292750000008209104856003733934_);}
</style>
<pattern  y="931" width="100" height="140" patternUnits="userSpaceOnUse" id="Unnamed_Pattern" viewBox="25 -175 100 140" style="overflow:visible;">
	<g>
		<rect x="25" y="-175" class="st0" width="100" height="140"/>
		<rect x="25" y="-175" class="st0" width="100" height="140"/>
		<g>
			<defs>
				<rect id="SVGID_1_" x="25" y="-175" width="100" height="140"/>
			</defs>
			<clipPath id="SVGID_00000145056511132937462520000005796520487891090856_">
				<use xlink:href="#SVGID_1_"  style="overflow:visible;"/>
			</clipPath>
			<g style="clip-path:url(#SVGID_00000145056511132937462520000005796520487891090856_);">
				<polygon class="st2" points="175,-35 170.2,-28.3 162.8,-17.9 162.2,-17.1 154.8,-6.8 150,0 137.8,-17.1 137.2,-17.9 125,-35 
					129.8,-41.7 137.2,-52.1 137.8,-52.9 145.2,-63.2 150,-70 162.2,-52.9 162.8,-52.1 				"/>
				<polygon class="st3" points="125,-35 120.2,-28.3 112.8,-17.9 112.2,-17.1 104.8,-6.8 100,0 87.8,-17.1 87.2,-17.9 75,-35 
					79.8,-41.7 87.2,-52.1 87.8,-52.9 95.2,-63.2 100,-70 112.2,-52.9 112.8,-52.1 				"/>
				<polygon class="st2" points="75,-35 70.2,-28.3 62.8,-17.9 62.2,-17.1 54.8,-6.8 50,0 37.8,-17.1 37.2,-17.9 25,-35 29.8,-41.7 
					37.2,-52.1 37.8,-52.9 45.2,-63.2 50,-70 62.2,-52.9 62.8,-52.1 				"/>
				<polygon class="st4" points="60.7,-14.9 60,-14.1 35,-49.1 35.7,-49.9 				"/>
				<polygon class="st4" points="64.9,-20.9 64.3,-20.1 39.3,-55.1 40,-55.9 				"/>
				<polygon class="st5" points="62.8,-17.9 62.2,-17.1 50,-34.1 49.4,-35 37.2,-52.1 37.8,-52.9 50,-35.9 50.6,-35 				"/>
				<polygon class="st4" points="39.3,-14.9 40,-14.1 64.9,-49.1 64.3,-49.9 				"/>
				<polygon class="st4" points="35,-20.9 35.6,-20.1 60.6,-55.1 60,-55.9 				"/>
				<polygon class="st5" points="37.2,-17.9 37.8,-17.1 50,-34.1 50.6,-35 62.8,-52.1 62.2,-52.9 50,-35.9 49.4,-35 				"/>
				<polygon class="st2" points="110.7,-14.9 110,-14.1 85,-49.1 85.7,-49.9 				"/>
				<polygon class="st2" points="114.9,-20.9 114.3,-20.1 89.3,-55.1 89.9,-55.9 				"/>
				<polygon class="st2" points="89.3,-14.9 89.9,-14.1 114.9,-49.1 114.3,-49.9 				"/>
				<polygon class="st2" points="85,-20.9 85.6,-20.1 110.6,-55.1 110,-55.9 				"/>
				<polygon class="st6" points="87.2,-17.9 87.8,-17.1 100,-34.1 100.6,-35 112.8,-52.1 112.2,-52.9 100,-35.9 99.4,-35 				"/>
				<polygon class="st6" points="112.8,-17.9 112.2,-17.1 100,-34.1 99.4,-35 87.2,-52.1 87.8,-52.9 100,-35.9 100.6,-35 				"/>
				<polygon class="st2" points="51.1,-68.4 48.8,-68.4 49.7,-69.6 50.3,-69.6 				"/>
				<polygon class="st2" points="52.9,-65.9 47.1,-65.9 47.9,-67.1 52.1,-67.1 				"/>
				<polygon class="st2" points="54.7,-63.4 45.3,-63.4 46.1,-64.6 53.9,-64.6 				"/>
				<polygon class="st2" points="56.5,-60.9 43.5,-60.9 44.3,-62.1 55.6,-62.1 				"/>
				<polygon class="st2" points="58.3,-58.4 41.7,-58.4 42.6,-59.6 57.4,-59.6 				"/>
				<polygon class="st2" points="60.1,-55.9 39.9,-55.9 40.8,-57.1 59.2,-57.1 				"/>
				<polygon class="st2" points="61.8,-53.4 38.1,-53.4 39,-54.6 61,-54.6 				"/>
				<polygon class="st2" points="63.7,-50.9 36.3,-50.9 37.2,-52.1 37.2,-52.1 62.8,-52.1 62.8,-52.1 				"/>
				<polygon class="st2" points="65.4,-48.4 34.5,-48.4 35.4,-49.6 64.6,-49.6 				"/>
				<polygon class="st2" points="67.2,-45.9 32.8,-45.9 33.6,-47.1 66.3,-47.1 				"/>
				<polygon class="st2" points="69,-43.4 31,-43.4 31.8,-44.6 68.2,-44.6 				"/>
				<polygon class="st2" points="70.8,-40.9 29.2,-40.9 29.8,-41.7 30.1,-42.1 69.9,-42.1 				"/>
				<polygon class="st2" points="72.6,-38.4 27.4,-38.4 28.3,-39.6 71.7,-39.6 				"/>
				<polygon class="st2" points="74.3,-35.9 25.6,-35.9 26.5,-37.1 73.5,-37.1 				"/>
				<polygon class="st3" points="101.2,-68.4 98.8,-68.4 99.7,-69.6 100.3,-69.6 				"/>
				<polygon class="st3" points="102.9,-65.9 97.1,-65.9 97.9,-67.1 102.1,-67.1 				"/>
				<polygon class="st3" points="104.7,-63.4 95.3,-63.4 96.1,-64.6 103.9,-64.6 				"/>
				<polygon class="st3" points="106.5,-60.9 93.5,-60.9 94.3,-62.1 105.7,-62.1 				"/>
				<polygon class="st3" points="108.3,-58.4 91.7,-58.4 92.6,-59.6 107.4,-59.6 				"/>
				<polygon class="st3" points="110.1,-55.9 89.9,-55.9 90.8,-57.1 109.2,-57.1 				"/>
				<polygon class="st3" points="111.9,-53.4 88.1,-53.4 89,-54.6 111,-54.6 				"/>
				<polygon class="st3" points="113.7,-50.9 86.3,-50.9 87.2,-52.1 87.2,-52.1 112.8,-52.1 112.8,-52.1 				"/>
				<polygon class="st3" points="115.4,-48.4 84.6,-48.4 85.4,-49.6 114.6,-49.6 				"/>
				<polygon class="st3" points="117.2,-45.9 82.8,-45.9 83.6,-47.1 116.4,-47.1 				"/>
				<polygon class="st3" points="119,-43.4 81,-43.4 81.8,-44.6 118.2,-44.6 				"/>
				<polygon class="st3" points="120.8,-40.9 79.2,-40.9 79.8,-41.7 80.1,-42.1 119.9,-42.1 				"/>
				<polygon class="st3" points="122.6,-38.4 77.4,-38.4 78.3,-39.6 121.7,-39.6 				"/>
				<polygon class="st3" points="124.4,-35.9 75.6,-35.9 76.5,-37.1 123.5,-37.1 				"/>
				<polygon class="st2" points="175,-175 170.2,-168.3 162.8,-157.9 162.2,-157.1 154.8,-146.8 150,-140 137.8,-157.1 
					137.2,-157.9 125,-175 129.8,-181.7 137.2,-192.1 137.8,-192.9 145.2,-203.2 150,-210 162.2,-192.9 162.8,-192.1 				"/>
				<polygon class="st6" points="150,-140 145.2,-133.3 137.8,-122.9 137.2,-122.1 129.8,-111.8 125,-105 112.8,-122.1 
					112.2,-122.9 100,-140 104.8,-146.7 112.2,-157.1 112.8,-157.9 120.2,-168.2 125,-175 137.2,-157.9 137.8,-157.1 				"/>
				<polygon class="st3" points="126.1,-173.4 123.8,-173.4 124.7,-174.6 125.3,-174.6 				"/>
				<polygon class="st3" points="127.9,-170.9 122.1,-170.9 122.9,-172.1 127.1,-172.1 				"/>
				<polygon class="st3" points="129.7,-168.4 120.3,-168.4 121.1,-169.6 128.9,-169.6 				"/>
				<polygon class="st3" points="131.5,-165.9 118.5,-165.9 119.3,-167.1 130.6,-167.1 				"/>
				<polygon class="st3" points="133.3,-163.4 116.7,-163.4 117.6,-164.6 132.4,-164.6 				"/>
				<polygon class="st3" points="135.1,-160.9 114.9,-160.9 115.8,-162.1 134.2,-162.1 				"/>
				<polygon class="st3" points="136.9,-158.4 113.1,-158.4 114,-159.6 136,-159.6 				"/>
				<polygon class="st3" points="138.6,-155.9 111.3,-155.9 112.2,-157.1 112.2,-157.1 137.8,-157.1 137.8,-157.1 				"/>
				<polygon class="st3" points="140.4,-153.4 109.6,-153.4 110.4,-154.6 139.6,-154.6 				"/>
				<polygon class="st3" points="142.2,-150.9 107.8,-150.9 108.6,-152.1 141.4,-152.1 				"/>
				<polygon class="st3" points="144,-148.4 106,-148.4 106.8,-149.6 143.1,-149.6 				"/>
				<polygon class="st3" points="145.8,-145.9 104.2,-145.9 104.8,-146.7 105.1,-147.1 144.9,-147.1 				"/>
				<polygon class="st3" points="147.6,-143.4 102.4,-143.4 103.3,-144.6 146.7,-144.6 				"/>
				<polygon class="st3" points="149.4,-140.9 100.6,-140.9 101.5,-142.1 148.5,-142.1 				"/>
				<polygon class="st3" points="149.7,-139.6 148.8,-138.4 101.1,-138.4 100.3,-139.6 				"/>
				<polygon class="st3" points="147.9,-137.1 147.1,-135.9 102.9,-135.9 102.1,-137.1 				"/>
				<polygon class="st3" points="146.1,-134.6 145.3,-133.4 104.7,-133.4 103.8,-134.6 				"/>
				<polygon class="st3" points="144.3,-132.1 143.5,-130.9 106.5,-130.9 105.6,-132.1 				"/>
				<polygon class="st3" points="142.6,-129.6 141.7,-128.4 108.3,-128.4 107.4,-129.6 				"/>
				<polygon class="st3" points="140.8,-127.1 139.9,-125.9 110.1,-125.9 109.2,-127.1 				"/>
				<polygon class="st3" points="139,-124.6 138.1,-123.4 111.8,-123.4 111,-124.6 				"/>
				<polygon class="st3" points="137.2,-122.1 137.2,-122.1 136.3,-120.9 113.6,-120.9 112.8,-122.1 112.8,-122.1 				"/>
				<polygon class="st3" points="135.4,-119.6 134.6,-118.4 115.4,-118.4 114.6,-119.6 				"/>
				<polygon class="st3" points="133.6,-117.1 132.8,-115.9 117.2,-115.9 116.3,-117.1 				"/>
				<polygon class="st3" points="131.8,-114.6 131,-113.4 119,-113.4 118.1,-114.6 				"/>
				<polygon class="st3" points="130.1,-112.1 129.8,-111.8 129.2,-110.9 120.8,-110.9 119.9,-112.1 				"/>
				<polygon class="st3" points="128.3,-109.6 127.4,-108.4 122.6,-108.4 121.7,-109.6 				"/>
				<polygon class="st3" points="126.5,-107.1 125.6,-105.9 124.3,-105.9 123.5,-107.1 				"/>
				<polygon class="st4" points="114.3,-119.9 114.9,-119.1 139.9,-154.1 139.3,-154.9 				"/>
				<polygon class="st4" points="110,-125.9 110.6,-125.1 135.6,-160.1 135,-160.9 				"/>
				<polygon class="st5" points="112.2,-122.9 112.8,-122.1 125,-139.1 125.6,-140 137.8,-157.1 137.2,-157.9 125,-140.9 
					124.4,-140 				"/>
				<polygon class="st2" points="135.6,-119.9 135,-119.1 110,-154.1 110.7,-154.9 				"/>
				<polygon class="st2" points="139.9,-125.9 139.3,-125.1 114.3,-160.1 114.9,-160.9 				"/>
				<polygon class="st6" points="137.8,-122.9 137.2,-122.1 125,-139.1 124.4,-140 112.2,-157.1 112.8,-157.9 125,-140.9 
					125.6,-140 				"/>
				<polygon class="st6" points="150,-70 145.2,-63.3 137.8,-52.9 137.2,-52.1 129.8,-41.8 125,-35 112.8,-52.1 112.2,-52.9 
					100,-70 104.8,-76.7 112.2,-87.1 112.8,-87.9 120.2,-98.2 125,-105 137.2,-87.9 137.8,-87.1 				"/>
				<polygon class="st3" points="126.1,-103.4 123.8,-103.4 124.7,-104.6 125.3,-104.6 				"/>
				<polygon class="st3" points="127.9,-100.9 122.1,-100.9 122.9,-102.1 127.1,-102.1 				"/>
				<polygon class="st3" points="129.7,-98.4 120.3,-98.4 121.1,-99.6 128.9,-99.6 				"/>
				<polygon class="st3" points="131.5,-95.9 118.5,-95.9 119.3,-97.1 130.6,-97.1 				"/>
				<polygon class="st3" points="133.3,-93.4 116.7,-93.4 117.6,-94.6 132.4,-94.6 				"/>
				<polygon class="st3" points="135.1,-90.9 114.9,-90.9 115.8,-92.1 134.2,-92.1 				"/>
				<polygon class="st3" points="136.9,-88.4 113.1,-88.4 114,-89.6 136,-89.6 				"/>
				<polygon class="st3" points="138.6,-85.9 111.3,-85.9 112.2,-87.1 112.2,-87.1 137.8,-87.1 137.8,-87.1 				"/>
				<polygon class="st3" points="140.4,-83.4 109.6,-83.4 110.4,-84.6 139.6,-84.6 				"/>
				<polygon class="st3" points="142.2,-80.9 107.8,-80.9 108.6,-82.1 141.4,-82.1 				"/>
				<polygon class="st3" points="144,-78.4 106,-78.4 106.8,-79.6 143.1,-79.6 				"/>
				<polygon class="st3" points="145.8,-75.9 104.2,-75.9 104.8,-76.7 105.1,-77.1 144.9,-77.1 				"/>
				<polygon class="st3" points="147.6,-73.4 102.4,-73.4 103.3,-74.6 146.7,-74.6 				"/>
				<polygon class="st3" points="149.4,-70.9 100.6,-70.9 101.5,-72.1 148.5,-72.1 				"/>
				<polygon class="st3" points="149.7,-69.6 148.8,-68.4 101.1,-68.4 100.3,-69.6 				"/>
				<polygon class="st3" points="147.9,-67.1 147.1,-65.9 102.9,-65.9 102.1,-67.1 				"/>
				<polygon class="st3" points="146.1,-64.6 145.3,-63.4 104.7,-63.4 103.8,-64.6 				"/>
				<polygon class="st3" points="144.3,-62.1 143.5,-60.9 106.5,-60.9 105.6,-62.1 				"/>
				<polygon class="st3" points="142.6,-59.6 141.7,-58.4 108.3,-58.4 107.4,-59.6 				"/>
				<polygon class="st3" points="140.8,-57.1 139.9,-55.9 110.1,-55.9 109.2,-57.1 				"/>
				<polygon class="st3" points="139,-54.6 138.1,-53.4 111.8,-53.4 111,-54.6 				"/>
				<polygon class="st3" points="137.2,-52.1 137.2,-52.1 136.3,-50.9 113.6,-50.9 112.8,-52.1 112.8,-52.1 				"/>
				<polygon class="st3" points="135.4,-49.6 134.6,-48.4 115.4,-48.4 114.6,-49.6 				"/>
				<polygon class="st3" points="133.6,-47.1 132.8,-45.9 117.2,-45.9 116.3,-47.1 				"/>
				<polygon class="st3" points="131.8,-44.6 131,-43.4 119,-43.4 118.1,-44.6 				"/>
				<polygon class="st3" points="130.1,-42.1 129.8,-41.8 129.2,-40.9 120.8,-40.9 119.9,-42.1 				"/>
				<polygon class="st3" points="128.3,-39.6 127.4,-38.4 122.6,-38.4 121.7,-39.6 				"/>
				<polygon class="st3" points="126.5,-37.1 125.6,-35.9 124.3,-35.9 123.5,-37.1 				"/>
				<polygon class="st2" points="114.3,-49.9 114.9,-49.1 139.9,-84.1 139.3,-84.9 				"/>
				<polygon class="st2" points="110,-55.9 110.6,-55.1 135.6,-90.1 135,-90.9 				"/>
				<polygon class="st6" points="112.2,-52.9 112.8,-52.1 125,-69.1 125.6,-70 137.8,-87.1 137.2,-87.9 125,-70.9 124.4,-70 				"/>
				<polygon class="st4" points="135.6,-49.9 135,-49.1 110,-84.1 110.7,-84.9 				"/>
				<polygon class="st4" points="139.9,-55.9 139.3,-55.1 114.3,-90.1 114.9,-90.9 				"/>
				<polygon class="st5" points="137.8,-52.9 137.2,-52.1 125,-69.1 124.4,-70 112.2,-87.1 112.8,-87.9 125,-70.9 125.6,-70 				"/>
				<polygon class="st3" points="175,-105 170.2,-98.3 162.8,-87.9 162.2,-87.1 154.8,-76.8 150,-70 137.8,-87.1 137.2,-87.9 
					125,-105 129.8,-111.7 137.2,-122.1 137.8,-122.9 145.2,-133.2 150,-140 162.2,-122.9 162.8,-122.1 				"/>
				<polygon class="st3" points="125,-175 120.2,-168.3 112.8,-157.9 112.2,-157.1 104.8,-146.8 100,-140 87.8,-157.1 87.2,-157.9 
					75,-175 79.8,-181.7 87.2,-192.1 87.8,-192.9 95.2,-203.2 100,-210 112.2,-192.9 112.8,-192.1 				"/>
				<polygon class="st6" points="100,-140 95.2,-133.3 87.8,-122.9 87.2,-122.1 79.8,-111.8 75,-105 62.8,-122.1 62.2,-122.9 
					50,-140 54.8,-146.7 62.2,-157.1 62.8,-157.9 70.2,-168.2 75,-175 87.2,-157.9 87.8,-157.1 				"/>
				<polygon class="st3" points="76.2,-173.4 73.8,-173.4 74.7,-174.6 75.3,-174.6 				"/>
				<polygon class="st3" points="77.9,-170.9 72.1,-170.9 72.9,-172.1 77.1,-172.1 				"/>
				<polygon class="st3" points="79.7,-168.4 70.3,-168.4 71.1,-169.6 78.8,-169.6 				"/>
				<polygon class="st3" points="81.5,-165.9 68.5,-165.9 69.3,-167.1 80.7,-167.1 				"/>
				<polygon class="st3" points="83.3,-163.4 66.7,-163.4 67.6,-164.6 82.4,-164.6 				"/>
				<polygon class="st3" points="85.1,-160.9 64.9,-160.9 65.8,-162.1 84.2,-162.1 				"/>
				<polygon class="st3" points="86.8,-158.4 63.1,-158.4 64,-159.6 86,-159.6 				"/>
				<polygon class="st3" points="88.7,-155.9 61.3,-155.9 62.2,-157.1 62.2,-157.1 87.8,-157.1 87.8,-157.1 				"/>
				<polygon class="st3" points="90.4,-153.4 59.5,-153.4 60.4,-154.6 89.6,-154.6 				"/>
				<polygon class="st3" points="92.2,-150.9 57.8,-150.9 58.6,-152.1 91.4,-152.1 				"/>
				<polygon class="st3" points="94,-148.4 56,-148.4 56.8,-149.6 93.1,-149.6 				"/>
				<polygon class="st3" points="95.8,-145.9 54.2,-145.9 54.8,-146.7 55.1,-147.1 94.9,-147.1 				"/>
				<polygon class="st3" points="97.6,-143.4 52.4,-143.4 53.3,-144.6 96.7,-144.6 				"/>
				<polygon class="st3" points="99.4,-140.9 50.6,-140.9 51.5,-142.1 98.5,-142.1 				"/>
				<polygon class="st3" points="99.7,-139.6 98.8,-138.4 51.1,-138.4 50.3,-139.6 				"/>
				<polygon class="st3" points="97.9,-137.1 97.1,-135.9 52.9,-135.9 52.1,-137.1 				"/>
				<polygon class="st3" points="96.1,-134.6 95.3,-133.4 54.7,-133.4 53.9,-134.6 				"/>
				<polygon class="st3" points="94.3,-132.1 93.5,-130.9 56.5,-130.9 55.6,-132.1 				"/>
				<polygon class="st3" points="92.6,-129.6 91.7,-128.4 58.3,-128.4 57.4,-129.6 				"/>
				<polygon class="st3" points="90.8,-127.1 89.9,-125.9 60.1,-125.9 59.2,-127.1 				"/>
				<polygon class="st3" points="89,-124.6 88.1,-123.4 61.8,-123.4 61,-124.6 				"/>
				<polygon class="st3" points="87.2,-122.1 87.2,-122.1 86.3,-120.9 63.7,-120.9 62.8,-122.1 62.8,-122.1 				"/>
				<polygon class="st3" points="85.4,-119.6 84.6,-118.4 65.4,-118.4 64.6,-119.6 				"/>
				<polygon class="st3" points="83.6,-117.1 82.8,-115.9 67.2,-115.9 66.3,-117.1 				"/>
				<polygon class="st3" points="81.8,-114.6 81,-113.4 69,-113.4 68.2,-114.6 				"/>
				<polygon class="st3" points="80.1,-112.1 79.8,-111.8 79.2,-110.9 70.8,-110.9 69.9,-112.1 				"/>
				<polygon class="st3" points="78.3,-109.6 77.4,-108.4 72.6,-108.4 71.7,-109.6 				"/>
				<polygon class="st3" points="76.5,-107.1 75.6,-105.9 74.3,-105.9 73.5,-107.1 				"/>
				<polygon class="st2" points="75,-175 70.2,-168.3 62.8,-157.9 62.2,-157.1 54.8,-146.8 50,-140 37.8,-157.1 37.2,-157.9 
					25,-175 29.8,-181.7 37.2,-192.1 37.8,-192.9 45.2,-203.2 50,-210 62.2,-192.9 62.8,-192.1 				"/>
				<polygon class="st4" points="60.7,-154.9 60,-154.1 35,-189.1 35.7,-189.9 				"/>
				<polygon class="st4" points="64.9,-160.9 64.3,-160.1 39.3,-195.1 40,-195.9 				"/>
				<polygon class="st5" points="62.8,-157.9 62.2,-157.1 50,-174.1 49.4,-175 37.2,-192.1 37.8,-192.9 50,-175.9 50.6,-175 				"/>
				<polygon class="st4" points="39.3,-154.9 40,-154.1 64.9,-189.1 64.3,-189.9 				"/>
				<polygon class="st4" points="35,-160.9 35.6,-160.1 60.6,-195.1 60,-195.9 				"/>
				<polygon class="st5" points="37.2,-157.9 37.8,-157.1 50,-174.1 50.6,-175 62.8,-192.1 62.2,-192.9 50,-175.9 49.4,-175 				"/>
				<polygon class="st2" points="110.7,-154.9 110,-154.1 85,-189.1 85.7,-189.9 				"/>
				<polygon class="st2" points="114.9,-160.9 114.3,-160.1 89.3,-195.1 89.9,-195.9 				"/>
				<polygon class="st2" points="89.3,-154.9 89.9,-154.1 114.9,-189.1 114.3,-189.9 				"/>
				<polygon class="st2" points="85,-160.9 85.6,-160.1 110.6,-195.1 110,-195.9 				"/>
				<polygon class="st6" points="87.2,-157.9 87.8,-157.1 100,-174.1 100.6,-175 112.8,-192.1 112.2,-192.9 100,-175.9 99.4,-175 
									"/>
				<polygon class="st6" points="112.8,-157.9 112.2,-157.1 100,-174.1 99.4,-175 87.2,-192.1 87.8,-192.9 100,-175.9 100.6,-175 
									"/>
				<polygon class="st2" points="64.3,-119.9 64.9,-119.1 89.9,-154.1 89.3,-154.9 				"/>
				<polygon class="st2" points="60,-125.9 60.6,-125.1 85.6,-160.1 85,-160.9 				"/>
				<polygon class="st6" points="62.2,-122.9 62.8,-122.1 75,-139.1 75.6,-140 87.8,-157.1 87.2,-157.9 75,-140.9 74.4,-140 				"/>
				<polygon class="st4" points="85.7,-119.9 85,-119.1 60,-154.1 60.7,-154.9 				"/>
				<polygon class="st4" points="89.9,-125.9 89.3,-125.1 64.3,-160.1 64.9,-160.9 				"/>
				<polygon class="st5" points="87.8,-122.9 87.2,-122.1 75,-139.1 74.4,-140 62.2,-157.1 62.8,-157.9 75,-140.9 75.6,-140 				"/>
				<polygon class="st6" points="50,-140 45.2,-133.3 37.8,-122.9 37.2,-122.1 29.8,-111.8 25,-105 12.8,-122.1 12.2,-122.9 0,-140 
					4.8,-146.7 12.2,-157.1 12.8,-157.9 20.2,-168.2 25,-175 37.2,-157.9 37.8,-157.1 				"/>
				<polygon class="st3" points="26.1,-173.4 23.8,-173.4 24.7,-174.6 25.3,-174.6 				"/>
				<polygon class="st3" points="27.9,-170.9 22.1,-170.9 22.9,-172.1 27.1,-172.1 				"/>
				<polygon class="st3" points="29.7,-168.4 20.3,-168.4 21.1,-169.6 28.9,-169.6 				"/>
				<polygon class="st3" points="31.5,-165.9 18.5,-165.9 19.3,-167.1 30.6,-167.1 				"/>
				<polygon class="st3" points="33.3,-163.4 16.7,-163.4 17.6,-164.6 32.4,-164.6 				"/>
				<polygon class="st3" points="35.1,-160.9 14.9,-160.9 15.8,-162.1 34.2,-162.1 				"/>
				<polygon class="st3" points="36.9,-158.4 13.1,-158.4 14,-159.6 36,-159.6 				"/>
				<polygon class="st3" points="38.6,-155.9 11.4,-155.9 12.2,-157.1 12.2,-157.1 37.8,-157.1 37.8,-157.1 				"/>
				<polygon class="st3" points="40.4,-153.4 9.6,-153.4 10.4,-154.6 39.6,-154.6 				"/>
				<polygon class="st3" points="42.2,-150.9 7.8,-150.9 8.6,-152.1 41.4,-152.1 				"/>
				<polygon class="st3" points="44,-148.4 6,-148.4 6.8,-149.6 43.1,-149.6 				"/>
				<polygon class="st3" points="45.8,-145.9 4.2,-145.9 4.8,-146.7 5.1,-147.1 44.9,-147.1 				"/>
				<polygon class="st3" points="47.6,-143.4 2.4,-143.4 3.3,-144.6 46.7,-144.6 				"/>
				<polygon class="st3" points="49.4,-140.9 0.6,-140.9 1.5,-142.1 48.5,-142.1 				"/>
				<polygon class="st3" points="49.7,-139.6 48.8,-138.4 1.1,-138.4 0.3,-139.6 				"/>
				<polygon class="st3" points="47.9,-137.1 47,-135.9 2.9,-135.9 2.1,-137.1 				"/>
				<polygon class="st3" points="46.1,-134.6 45.3,-133.4 4.7,-133.4 3.9,-134.6 				"/>
				<polygon class="st3" points="44.3,-132.1 43.5,-130.9 6.5,-130.9 5.6,-132.1 				"/>
				<polygon class="st3" points="42.5,-129.6 41.7,-128.4 8.3,-128.4 7.4,-129.6 				"/>
				<polygon class="st3" points="40.8,-127.1 39.9,-125.9 10.1,-125.9 9.2,-127.1 				"/>
				<polygon class="st3" points="39,-124.6 38.1,-123.4 11.9,-123.4 11,-124.6 				"/>
				<polygon class="st3" points="37.2,-122.1 37.2,-122.1 36.3,-120.9 13.6,-120.9 12.8,-122.1 12.8,-122.1 				"/>
				<polygon class="st3" points="35.4,-119.6 34.5,-118.4 15.4,-118.4 14.6,-119.6 				"/>
				<polygon class="st3" points="33.6,-117.1 32.8,-115.9 17.2,-115.9 16.4,-117.1 				"/>
				<polygon class="st3" points="31.8,-114.6 31,-113.4 19,-113.4 18.1,-114.6 				"/>
				<polygon class="st3" points="30,-112.1 29.8,-111.8 29.2,-110.9 20.8,-110.9 19.9,-112.1 				"/>
				<polygon class="st3" points="28.3,-109.6 27.4,-108.4 22.6,-108.4 21.7,-109.6 				"/>
				<polygon class="st3" points="26.5,-107.1 25.6,-105.9 24.4,-105.9 23.5,-107.1 				"/>
				<polygon class="st4" points="14.3,-119.9 14.9,-119.1 40,-154.1 39.3,-154.9 				"/>
				<polygon class="st4" points="10,-125.9 10.6,-125.1 35.6,-160.1 35,-160.9 				"/>
				<polygon class="st5" points="12.2,-122.9 12.8,-122.1 25,-139.1 25.6,-140 37.8,-157.1 37.2,-157.9 25,-140.9 24.4,-140 				"/>
				<polygon class="st2" points="35.7,-119.9 35,-119.1 10,-154.1 10.6,-154.9 				"/>
				<polygon class="st2" points="40,-125.9 39.3,-125.1 14.3,-160.1 14.9,-160.9 				"/>
				<polygon class="st6" points="37.8,-122.9 37.2,-122.1 25,-139.1 24.4,-140 12.2,-157.1 12.8,-157.9 25,-140.9 25.6,-140 				"/>
				<polygon class="st6" points="100,-70 95.2,-63.3 87.8,-52.9 87.2,-52.1 79.8,-41.8 75,-35 62.8,-52.1 62.2,-52.9 50,-70 
					54.8,-76.7 62.2,-87.1 62.8,-87.9 70.2,-98.2 75,-105 87.2,-87.9 87.8,-87.1 				"/>
				<polygon class="st3" points="76.2,-103.4 73.8,-103.4 74.7,-104.6 75.3,-104.6 				"/>
				<polygon class="st3" points="77.9,-100.9 72.1,-100.9 72.9,-102.1 77.1,-102.1 				"/>
				<polygon class="st3" points="79.7,-98.4 70.3,-98.4 71.1,-99.6 78.8,-99.6 				"/>
				<polygon class="st3" points="81.5,-95.9 68.5,-95.9 69.3,-97.1 80.7,-97.1 				"/>
				<polygon class="st3" points="83.3,-93.4 66.7,-93.4 67.6,-94.6 82.4,-94.6 				"/>
				<polygon class="st3" points="85.1,-90.9 64.9,-90.9 65.8,-92.1 84.2,-92.1 				"/>
				<polygon class="st3" points="86.8,-88.4 63.1,-88.4 64,-89.6 86,-89.6 				"/>
				<polygon class="st3" points="88.7,-85.9 61.3,-85.9 62.2,-87.1 62.2,-87.1 87.8,-87.1 87.8,-87.1 				"/>
				<polygon class="st3" points="90.4,-83.4 59.5,-83.4 60.4,-84.6 89.6,-84.6 				"/>
				<polygon class="st3" points="92.2,-80.9 57.8,-80.9 58.6,-82.1 91.4,-82.1 				"/>
				<polygon class="st3" points="94,-78.4 56,-78.4 56.8,-79.6 93.1,-79.6 				"/>
				<polygon class="st3" points="95.8,-75.9 54.2,-75.9 54.8,-76.7 55.1,-77.1 94.9,-77.1 				"/>
				<polygon class="st3" points="97.6,-73.4 52.4,-73.4 53.3,-74.6 96.7,-74.6 				"/>
				<polygon class="st3" points="99.4,-70.9 50.6,-70.9 51.5,-72.1 98.5,-72.1 				"/>
				<polygon class="st3" points="99.7,-69.6 98.8,-68.4 51.1,-68.4 50.3,-69.6 				"/>
				<polygon class="st3" points="97.9,-67.1 97.1,-65.9 52.9,-65.9 52.1,-67.1 				"/>
				<polygon class="st3" points="96.1,-64.6 95.3,-63.4 54.7,-63.4 53.9,-64.6 				"/>
				<polygon class="st3" points="94.3,-62.1 93.5,-60.9 56.5,-60.9 55.6,-62.1 				"/>
				<polygon class="st3" points="92.6,-59.6 91.7,-58.4 58.3,-58.4 57.4,-59.6 				"/>
				<polygon class="st3" points="90.8,-57.1 89.9,-55.9 60.1,-55.9 59.2,-57.1 				"/>
				<polygon class="st3" points="89,-54.6 88.1,-53.4 61.8,-53.4 61,-54.6 				"/>
				<polygon class="st3" points="87.2,-52.1 87.2,-52.1 86.3,-50.9 63.7,-50.9 62.8,-52.1 62.8,-52.1 				"/>
				<polygon class="st3" points="85.4,-49.6 84.6,-48.4 65.4,-48.4 64.6,-49.6 				"/>
				<polygon class="st3" points="83.6,-47.1 82.8,-45.9 67.2,-45.9 66.3,-47.1 				"/>
				<polygon class="st3" points="81.8,-44.6 81,-43.4 69,-43.4 68.2,-44.6 				"/>
				<polygon class="st3" points="80.1,-42.1 79.8,-41.8 79.2,-40.9 70.8,-40.9 69.9,-42.1 				"/>
				<polygon class="st3" points="78.3,-39.6 77.4,-38.4 72.6,-38.4 71.7,-39.6 				"/>
				<polygon class="st3" points="76.5,-37.1 75.6,-35.9 74.3,-35.9 73.5,-37.1 				"/>
				<polygon class="st4" points="64.3,-49.9 64.9,-49.1 89.9,-84.1 89.3,-84.9 				"/>
				<polygon class="st4" points="60,-55.9 60.6,-55.1 85.6,-90.1 85,-90.9 				"/>
				<polygon class="st5" points="62.2,-52.9 62.8,-52.1 75,-69.1 75.6,-70 87.8,-87.1 87.2,-87.9 75,-70.9 74.4,-70 				"/>
				<polygon class="st2" points="85.7,-49.9 85,-49.1 60,-84.1 60.7,-84.9 				"/>
				<polygon class="st2" points="89.9,-55.9 89.3,-55.1 64.3,-90.1 64.9,-90.9 				"/>
				<polygon class="st6" points="87.8,-52.9 87.2,-52.1 75,-69.1 74.4,-70 62.2,-87.1 62.8,-87.9 75,-70.9 75.6,-70 				"/>
				<polygon class="st6" points="50,-70 45.2,-63.3 37.8,-52.9 37.2,-52.1 29.8,-41.8 25,-35 12.8,-52.1 12.2,-52.9 0,-70 
					4.8,-76.7 12.2,-87.1 12.8,-87.9 20.2,-98.2 25,-105 37.2,-87.9 37.8,-87.1 				"/>
				<polygon class="st3" points="26.1,-103.4 23.8,-103.4 24.7,-104.6 25.3,-104.6 				"/>
				<polygon class="st3" points="27.9,-100.9 22.1,-100.9 22.9,-102.1 27.1,-102.1 				"/>
				<polygon class="st3" points="29.7,-98.4 20.3,-98.4 21.1,-99.6 28.9,-99.6 				"/>
				<polygon class="st3" points="31.5,-95.9 18.5,-95.9 19.3,-97.1 30.6,-97.1 				"/>
				<polygon class="st3" points="33.3,-93.4 16.7,-93.4 17.6,-94.6 32.4,-94.6 				"/>
				<polygon class="st3" points="35.1,-90.9 14.9,-90.9 15.8,-92.1 34.2,-92.1 				"/>
				<polygon class="st3" points="36.9,-88.4 13.1,-88.4 14,-89.6 36,-89.6 				"/>
				<polygon class="st3" points="38.6,-85.9 11.4,-85.9 12.2,-87.1 12.2,-87.1 37.8,-87.1 37.8,-87.1 				"/>
				<polygon class="st3" points="40.4,-83.4 9.6,-83.4 10.4,-84.6 39.6,-84.6 				"/>
				<polygon class="st3" points="42.2,-80.9 7.8,-80.9 8.6,-82.1 41.4,-82.1 				"/>
				<polygon class="st3" points="44,-78.4 6,-78.4 6.8,-79.6 43.1,-79.6 				"/>
				<polygon class="st3" points="45.8,-75.9 4.2,-75.9 4.8,-76.7 5.1,-77.1 44.9,-77.1 				"/>
				<polygon class="st3" points="47.6,-73.4 2.4,-73.4 3.3,-74.6 46.7,-74.6 				"/>
				<polygon class="st3" points="49.4,-70.9 0.6,-70.9 1.5,-72.1 48.5,-72.1 				"/>
				<polygon class="st3" points="49.7,-69.6 48.8,-68.4 1.1,-68.4 0.3,-69.6 				"/>
				<polygon class="st3" points="47.9,-67.1 47,-65.9 2.9,-65.9 2.1,-67.1 				"/>
				<polygon class="st3" points="46.1,-64.6 45.3,-63.4 4.7,-63.4 3.9,-64.6 				"/>
				<polygon class="st3" points="44.3,-62.1 43.5,-60.9 6.5,-60.9 5.6,-62.1 				"/>
				<polygon class="st3" points="42.5,-59.6 41.7,-58.4 8.3,-58.4 7.4,-59.6 				"/>
				<polygon class="st3" points="40.8,-57.1 39.9,-55.9 10.1,-55.9 9.2,-57.1 				"/>
				<polygon class="st3" points="39,-54.6 38.1,-53.4 11.9,-53.4 11,-54.6 				"/>
				<polygon class="st3" points="37.2,-52.1 37.2,-52.1 36.3,-50.9 13.6,-50.9 12.8,-52.1 12.8,-52.1 				"/>
				<polygon class="st3" points="35.4,-49.6 34.5,-48.4 15.4,-48.4 14.6,-49.6 				"/>
				<polygon class="st3" points="33.6,-47.1 32.8,-45.9 17.2,-45.9 16.4,-47.1 				"/>
				<polygon class="st3" points="31.8,-44.6 31,-43.4 19,-43.4 18.1,-44.6 				"/>
				<polygon class="st3" points="30,-42.1 29.8,-41.8 29.2,-40.9 20.8,-40.9 19.9,-42.1 				"/>
				<polygon class="st3" points="28.3,-39.6 27.4,-38.4 22.6,-38.4 21.7,-39.6 				"/>
				<polygon class="st3" points="26.5,-37.1 25.6,-35.9 24.4,-35.9 23.5,-37.1 				"/>
				<polygon class="st2" points="14.3,-49.9 14.9,-49.1 40,-84.1 39.3,-84.9 				"/>
				<polygon class="st2" points="10,-55.9 10.6,-55.1 35.6,-90.1 35,-90.9 				"/>
				<polygon class="st6" points="12.2,-52.9 12.8,-52.1 25,-69.1 25.6,-70 37.8,-87.1 37.2,-87.9 25,-70.9 24.4,-70 				"/>
				<polygon class="st4" points="35.7,-49.9 35,-49.1 10,-84.1 10.6,-84.9 				"/>
				<polygon class="st4" points="40,-55.9 39.3,-55.1 14.3,-90.1 14.9,-90.9 				"/>
				<polygon class="st5" points="37.8,-52.9 37.2,-52.1 25,-69.1 24.4,-70 12.2,-87.1 12.8,-87.9 25,-70.9 25.6,-70 				"/>
				<polygon class="st2" points="74.7,-174.6 73.8,-173.4 26.1,-173.4 25.3,-174.6 				"/>
				<polygon class="st2" points="72.9,-172.1 72.1,-170.9 27.9,-170.9 27.1,-172.1 				"/>
				<polygon class="st2" points="71.1,-169.6 70.3,-168.4 29.7,-168.4 28.9,-169.6 				"/>
				<polygon class="st2" points="69.3,-167.1 68.5,-165.9 31.5,-165.9 30.6,-167.1 				"/>
				<polygon class="st2" points="67.6,-164.6 66.7,-163.4 33.3,-163.4 32.4,-164.6 				"/>
				<polygon class="st2" points="65.8,-162.1 64.9,-160.9 35.1,-160.9 34.2,-162.1 				"/>
				<polygon class="st2" points="64,-159.6 63.1,-158.4 36.9,-158.4 36,-159.6 				"/>
				<polygon class="st2" points="62.2,-157.1 62.2,-157.1 61.3,-155.9 38.6,-155.9 37.8,-157.1 37.8,-157.1 				"/>
				<polygon class="st2" points="60.4,-154.6 59.5,-153.4 40.4,-153.4 39.6,-154.6 				"/>
				<polygon class="st2" points="58.6,-152.1 57.8,-150.9 42.2,-150.9 41.4,-152.1 				"/>
				<polygon class="st2" points="56.8,-149.6 56,-148.4 44,-148.4 43.1,-149.6 				"/>
				<polygon class="st2" points="55,-147.1 54.8,-146.8 54.2,-145.9 45.8,-145.9 44.9,-147.1 				"/>
				<polygon class="st2" points="53.3,-144.6 52.4,-143.4 47.6,-143.4 46.7,-144.6 				"/>
				<polygon class="st2" points="51.5,-142.1 50.6,-140.9 49.4,-140.9 48.5,-142.1 				"/>
				<polygon class="st2" points="125,-105 120.2,-98.3 112.8,-87.9 112.2,-87.1 104.8,-76.8 100,-70 87.8,-87.1 87.2,-87.9 75,-105 
					79.8,-111.7 87.2,-122.1 87.8,-122.9 95.2,-133.2 100,-140 112.2,-122.9 112.8,-122.1 				"/>
				<polygon class="st4" points="110.7,-84.9 110,-84.1 85,-119.1 85.7,-119.9 				"/>
				<polygon class="st4" points="114.9,-90.9 114.3,-90.1 89.3,-125.1 89.9,-125.9 				"/>
				<polygon class="st5" points="112.8,-87.9 112.2,-87.1 100,-104.1 99.4,-105 87.2,-122.1 87.8,-122.9 100,-105.9 100.6,-105 				
					"/>
				<polygon class="st4" points="89.3,-84.9 89.9,-84.1 114.9,-119.1 114.3,-119.9 				"/>
				<polygon class="st4" points="85,-90.9 85.6,-90.1 110.6,-125.1 110,-125.9 				"/>
				<polygon class="st5" points="87.2,-87.9 87.8,-87.1 100,-104.1 100.6,-105 112.8,-122.1 112.2,-122.9 100,-105.9 99.4,-105 				
					"/>
				<polygon class="st2" points="101.1,-138.4 98.8,-138.4 99.7,-139.6 100.3,-139.6 				"/>
				<polygon class="st2" points="102.9,-135.9 97.1,-135.9 97.9,-137.1 102.1,-137.1 				"/>
				<polygon class="st2" points="104.7,-133.4 95.3,-133.4 96.1,-134.6 103.9,-134.6 				"/>
				<polygon class="st2" points="106.5,-130.9 93.5,-130.9 94.3,-132.1 105.6,-132.1 				"/>
				<polygon class="st2" points="108.3,-128.4 91.7,-128.4 92.6,-129.6 107.4,-129.6 				"/>
				<polygon class="st2" points="110.1,-125.9 89.9,-125.9 90.8,-127.1 109.2,-127.1 				"/>
				<polygon class="st2" points="111.9,-123.4 88.1,-123.4 89,-124.6 111,-124.6 				"/>
				<polygon class="st2" points="113.6,-120.9 86.3,-120.9 87.2,-122.1 87.2,-122.1 112.8,-122.1 112.8,-122.1 				"/>
				<polygon class="st2" points="115.4,-118.4 84.6,-118.4 85.4,-119.6 114.6,-119.6 				"/>
				<polygon class="st2" points="117.2,-115.9 82.8,-115.9 83.6,-117.1 116.4,-117.1 				"/>
				<polygon class="st2" points="119,-113.4 81,-113.4 81.8,-114.6 118.1,-114.6 				"/>
				<polygon class="st2" points="120.8,-110.9 79.2,-110.9 79.8,-111.7 80.1,-112.1 119.9,-112.1 				"/>
				<polygon class="st2" points="122.6,-108.4 77.4,-108.4 78.3,-109.6 121.7,-109.6 				"/>
				<polygon class="st2" points="124.4,-105.9 75.6,-105.9 76.5,-107.1 123.5,-107.1 				"/>
				<polygon class="st2" points="124.7,-104.6 123.8,-103.4 76.2,-103.4 75.3,-104.6 				"/>
				<polygon class="st2" points="122.9,-102.1 122.1,-100.9 77.9,-100.9 77.1,-102.1 				"/>
				<polygon class="st2" points="121.1,-99.6 120.3,-98.4 79.7,-98.4 78.8,-99.6 				"/>
				<polygon class="st2" points="119.3,-97.1 118.5,-95.9 81.5,-95.9 80.7,-97.1 				"/>
				<polygon class="st2" points="117.6,-94.6 116.7,-93.4 83.3,-93.4 82.4,-94.6 				"/>
				<polygon class="st2" points="115.8,-92.1 114.9,-90.9 85.1,-90.9 84.2,-92.1 				"/>
				<polygon class="st2" points="114,-89.6 113.1,-88.4 86.8,-88.4 86,-89.6 				"/>
				<polygon class="st2" points="112.2,-87.1 112.2,-87.1 111.3,-85.9 88.7,-85.9 87.8,-87.1 87.8,-87.1 				"/>
				<polygon class="st2" points="110.4,-84.6 109.6,-83.4 90.4,-83.4 89.6,-84.6 				"/>
				<polygon class="st2" points="108.6,-82.1 107.8,-80.9 92.2,-80.9 91.4,-82.1 				"/>
				<polygon class="st2" points="106.8,-79.6 106,-78.4 94,-78.4 93.1,-79.6 				"/>
				<polygon class="st2" points="105.1,-77.1 104.8,-76.8 104.2,-75.9 95.8,-75.9 94.9,-77.1 				"/>
				<polygon class="st2" points="103.3,-74.6 102.4,-73.4 97.6,-73.4 96.7,-74.6 				"/>
				<polygon class="st2" points="101.5,-72.1 100.6,-70.9 99.4,-70.9 98.5,-72.1 				"/>
				<polygon class="st3" points="124.7,-174.6 123.8,-173.4 76.2,-173.4 75.3,-174.6 				"/>
				<polygon class="st3" points="122.9,-172.1 122.1,-170.9 77.9,-170.9 77.1,-172.1 				"/>
				<polygon class="st3" points="121.1,-169.6 120.3,-168.4 79.7,-168.4 78.9,-169.6 				"/>
				<polygon class="st3" points="119.3,-167.1 118.5,-165.9 81.5,-165.9 80.7,-167.1 				"/>
				<polygon class="st3" points="117.6,-164.6 116.7,-163.4 83.3,-163.4 82.4,-164.6 				"/>
				<polygon class="st3" points="115.8,-162.1 114.9,-160.9 85.1,-160.9 84.2,-162.1 				"/>
				<polygon class="st3" points="114,-159.6 113.1,-158.4 86.9,-158.4 86,-159.6 				"/>
				<polygon class="st3" points="112.2,-157.1 112.2,-157.1 111.3,-155.9 88.7,-155.9 87.8,-157.1 87.8,-157.1 				"/>
				<polygon class="st3" points="110.4,-154.6 109.6,-153.4 90.4,-153.4 89.6,-154.6 				"/>
				<polygon class="st3" points="108.6,-152.1 107.8,-150.9 92.2,-150.9 91.4,-152.1 				"/>
				<polygon class="st3" points="106.8,-149.6 106,-148.4 94,-148.4 93.2,-149.6 				"/>
				<polygon class="st3" points="105.1,-147.1 104.8,-146.8 104.2,-145.9 95.8,-145.9 94.9,-147.1 				"/>
				<polygon class="st3" points="103.3,-144.6 102.4,-143.4 97.6,-143.4 96.7,-144.6 				"/>
				<polygon class="st3" points="101.5,-142.1 100.6,-140.9 99.4,-140.9 98.5,-142.1 				"/>
				<polygon class="st3" points="75,-105 70.2,-98.3 62.8,-87.9 62.2,-87.1 54.8,-76.8 50,-70 37.8,-87.1 37.2,-87.9 25,-105 
					29.8,-111.7 37.2,-122.1 37.8,-122.9 45.2,-133.2 50,-140 62.2,-122.9 62.8,-122.1 				"/>
				<polygon class="st2" points="60.7,-84.9 60,-84.1 35,-119.1 35.7,-119.9 				"/>
				<polygon class="st2" points="64.9,-90.9 64.3,-90.1 39.3,-125.1 40,-125.9 				"/>
				<polygon class="st2" points="39.3,-84.9 40,-84.1 64.9,-119.1 64.3,-119.9 				"/>
				<polygon class="st2" points="35,-90.9 35.6,-90.1 60.6,-125.1 60,-125.9 				"/>
				<polygon class="st6" points="37.2,-87.9 37.8,-87.1 50,-104.1 50.6,-105 62.8,-122.1 62.2,-122.9 50,-105.9 49.4,-105 				"/>
				<polygon class="st6" points="62.8,-87.9 62.2,-87.1 50,-104.1 49.4,-105 37.2,-122.1 37.8,-122.9 50,-105.9 50.6,-105 				"/>
				<polygon class="st3" points="51.2,-138.4 48.8,-138.4 49.7,-139.6 50.3,-139.6 				"/>
				<polygon class="st3" points="52.9,-135.9 47.1,-135.9 47.9,-137.1 52.1,-137.1 				"/>
				<polygon class="st3" points="54.7,-133.4 45.3,-133.4 46.1,-134.6 53.9,-134.6 				"/>
				<polygon class="st3" points="56.5,-130.9 43.5,-130.9 44.3,-132.1 55.7,-132.1 				"/>
				<polygon class="st3" points="58.3,-128.4 41.7,-128.4 42.6,-129.6 57.4,-129.6 				"/>
				<polygon class="st3" points="60.1,-125.9 39.9,-125.9 40.8,-127.1 59.2,-127.1 				"/>
				<polygon class="st3" points="61.9,-123.4 38.1,-123.4 39,-124.6 61,-124.6 				"/>
				<polygon class="st3" points="63.7,-120.9 36.3,-120.9 37.2,-122.1 37.2,-122.1 62.8,-122.1 62.8,-122.1 				"/>
				<polygon class="st3" points="65.4,-118.4 34.6,-118.4 35.4,-119.6 64.6,-119.6 				"/>
				<polygon class="st3" points="67.2,-115.9 32.8,-115.9 33.6,-117.1 66.4,-117.1 				"/>
				<polygon class="st3" points="69,-113.4 31,-113.4 31.9,-114.6 68.2,-114.6 				"/>
				<polygon class="st3" points="70.8,-110.9 29.2,-110.9 29.8,-111.7 30.1,-112.1 69.9,-112.1 				"/>
				<polygon class="st3" points="72.6,-108.4 27.4,-108.4 28.3,-109.6 71.7,-109.6 				"/>
				<polygon class="st3" points="74.4,-105.9 25.6,-105.9 26.5,-107.1 73.5,-107.1 				"/>
				<polygon class="st3" points="74.7,-104.6 73.8,-103.4 26.1,-103.4 25.3,-104.6 				"/>
				<polygon class="st3" points="72.9,-102.1 72.1,-100.9 27.9,-100.9 27.1,-102.1 				"/>
				<polygon class="st3" points="71.1,-99.6 70.3,-98.4 29.7,-98.4 28.9,-99.6 				"/>
				<polygon class="st3" points="69.3,-97.1 68.5,-95.9 31.5,-95.9 30.6,-97.1 				"/>
				<polygon class="st3" points="67.6,-94.6 66.7,-93.4 33.3,-93.4 32.4,-94.6 				"/>
				<polygon class="st3" points="65.8,-92.1 64.9,-90.9 35.1,-90.9 34.2,-92.1 				"/>
				<polygon class="st3" points="64,-89.6 63.1,-88.4 36.9,-88.4 36,-89.6 				"/>
				<polygon class="st3" points="62.2,-87.1 62.2,-87.1 61.3,-85.9 38.7,-85.9 37.8,-87.1 37.8,-87.1 				"/>
				<polygon class="st3" points="60.4,-84.6 59.6,-83.4 40.4,-83.4 39.6,-84.6 				"/>
				<polygon class="st3" points="58.6,-82.1 57.8,-80.9 42.2,-80.9 41.4,-82.1 				"/>
				<polygon class="st3" points="56.8,-79.6 56,-78.4 44,-78.4 43.2,-79.6 				"/>
				<polygon class="st3" points="55.1,-77.1 54.8,-76.8 54.2,-75.9 45.8,-75.9 44.9,-77.1 				"/>
				<polygon class="st3" points="53.3,-74.6 52.4,-73.4 47.6,-73.4 46.7,-74.6 				"/>
				<polygon class="st3" points="51.5,-72.1 50.6,-70.9 49.4,-70.9 48.5,-72.1 				"/>
			</g>
		</g>
	</g>
</pattern>
<g>
	<defs>
		<circle id="SVGID_00000095308960059705895560000005231266616482826430_" cx="465.3" cy="465.3" r="465.2"/>
	</defs>
	<clipPath id="SVGID_00000064323268067405113500000013632222026416194211_">
		<use xlink:href="#SVGID_00000095308960059705895560000005231266616482826430_"  style="overflow:visible;"/>
	</clipPath>
	<g style="clip-path:url(#SVGID_00000064323268067405113500000013632222026416194211_);">
		<g>
			<defs>
				<rect id="SVGID_00000059272409229582110820000002145639015967344054_" width="930.6" height="930.6"/>
			</defs>
			<clipPath id="SVGID_00000083800397258957757840000003877756080069958059_">
				<use xlink:href="#SVGID_00000059272409229582110820000002145639015967344054_"  style="overflow:visible;"/>
			</clipPath>
			<g style="clip-path:url(#SVGID_00000083800397258957757840000003877756080069958059_);">
				
					<pattern  id="SVGID_00000055668482612713191020000007794288434046530485_" xlink:href="#Unnamed_Pattern" patternTransform="matrix(3.72 0 0 3.72 23968.3008 -35811.4766)">
				</pattern>
				<rect style="fill:url(#SVGID_00000055668482612713191020000007794288434046530485_);" width="930.6" height="930.6"/>
			</g>
		</g>
	</g>
</g>
<g>
	<defs>
		<path id="SVGID_00000145767842524808402230000002868672059878270106_" d="M469.8,223.2c-137.4-2.5-250.2,110.8-247,248.2
			c1.9,83.8,47,160.7,119.2,203.3c33.9,20.2,54.7,56.8,54.6,96.3v154.5c0,0.3,0.2,0.5,0.4,0.5c0,0,0,0,0.1,0
			c45.3,6.7,91.3,6.7,136.6,0c0.3,0,0.4-0.3,0.5-0.5V771c0-39.6,20.9-76.3,54.9-96.5c73.8-43.6,119-123,118.9-208.7
			C707.9,333.2,601.7,225.5,469.8,223.2z"/>
	</defs>
	<clipPath id="SVGID_00000057120389215147965540000006123183800911979701_">
		<use xlink:href="#SVGID_00000145767842524808402230000002868672059878270106_"  style="overflow:visible;"/>
	</clipPath>
	<g style="clip-path:url(#SVGID_00000057120389215147965540000006123183800911979701_);">
		
			<image style="overflow:visible;" width="7441" height="4961" xlink:href="C:\Users\Future Machine 009\Downloads\simple-smooth-fabric-textured-background.jpg"  transform="matrix(0.4588 0 0 0.4588 -1300.7979 -712.4417)">
		</image>
	</g>
</g>
</svg>
