<?xml version="1.0" encoding="utf-8"?>
<!-- Generator: Adobe Illustrator 27.4.1, SVG Export Plug-In . SVG Version: 6.00 Build 0)  -->
<svg version="1.1" id="_x30_" xmlns="http://www.w3.org/2000/svg" xmlns:xlink="http://www.w3.org/1999/xlink" x="0px" y="0px"
	 viewBox="0 0 3000 3000" style="enable-background:new 0 0 3000 3000;" xml:space="preserve">
<style type="text/css">
	.st0{fill:#C80016;}
	.st1{fill:none;stroke:#000000;stroke-width:0.7087;stroke-linecap:round;stroke-linejoin:round;stroke-miterlimit:10;}
	.st2{fill:#F0F0F2;}
</style>
<circle class="st0" cx="1500" cy="1500" r="1500"/>
<g>
	<g id="SPLINE">
		<polyline class="st1" points="2045.06,2068.39 2044.43,2068.99 2043.8,2069.6 2043.17,2070.2 2042.54,2070.8 2041.91,2071.39 
			2041.28,2071.99 2040.65,2072.58 2040.03,2073.17 2039.4,2073.76 2038.77,2074.35 2038.15,2074.94 2037.52,2075.52 2036.9,2076.1 
			2036.28,2076.68 2035.65,2077.26 2035.03,2077.84 2034.41,2078.41 2033.79,2078.98 2033.17,2079.55 2032.55,2080.12 
			2031.94,2080.69 2031.32,2081.26 2030.7,2081.82 2030.08,2082.38 2029.47,2082.94 2028.85,2083.5 2028.24,2084.05 
			2027.63,2084.61 2027.01,2085.16 2026.4,2085.71 2025.79,2086.26 2025.18,2086.81 2024.57,2087.36 2023.96,2087.9 
			2023.35,2088.44 2022.74,2088.98 2022.13,2089.52 2021.53,2090.06 2020.92,2090.6 2020.31,2091.13 2019.71,2091.66 
			2019.1,2092.19 2018.5,2092.72 2017.9,2093.25 2017.29,2093.78 2016.69,2094.3 2016.09,2094.83 2015.49,2095.35 2014.89,2095.87 
			2014.29,2096.39 2013.69,2096.9 2013.09,2097.42 2012.49,2097.93 2011.9,2098.45 2011.3,2098.96 2010.7,2099.47 2010.11,2099.97 
			2009.51,2100.48 2008.92,2100.99 2008.32,2101.49 2007.73,2101.99 2007.14,2102.49 2006.55,2102.99 2005.96,2103.49 
			2005.36,2103.99 2004.77,2104.48 2004.18,2104.98 2003.6,2105.47 2003.01,2105.96 2002.42,2106.45 2001.83,2106.94 
			2001.25,2107.43 2000.66,2107.91 2000.07,2108.4 1999.49,2108.88 1998.91,2109.36 1998.32,2109.84 1997.74,2110.32 
			1997.16,2110.8 1996.57,2111.28 1995.99,2111.75 1995.41,2112.23 1994.83,2112.7 1994.25,2113.17 1993.09,2114.11 
			1991.94,2115.05 1990.78,2115.98 1989.63,2116.9 1988.48,2117.82 1987.34,2118.74 1986.19,2119.65 1985.05,2120.56 
			1983.91,2121.46 1982.77,2122.36 1981.64,2123.26 1980.5,2124.15 1979.37,2125.03 1978.24,2125.92 1977.11,2126.8 
			1975.99,2127.67 1974.87,2128.54 1973.74,2129.41 1972.63,2130.27 1971.51,2131.13 1970.39,2131.99 1969.28,2132.84 
			1968.17,2133.69 1967.06,2134.53 1965.96,2135.37 1964.85,2136.21 1963.75,2137.05 1962.65,2137.88 1961.55,2138.71 
			1960.46,2139.53 1959.36,2140.36 1958.27,2141.18 1957.18,2141.99 1956.09,2142.81 1955.01,2143.62 1953.92,2144.43 
			1952.84,2145.23 1951.76,2146.03 1950.68,2146.83 1949.61,2147.63 1948.53,2148.43 1947.46,2149.22 1946.39,2150.01 
			1945.32,2150.8 1944.26,2151.58 1943.19,2152.37 1942.13,2153.15 1941.07,2153.93 1940.02,2154.7 1938.96,2155.48 
			1937.91,2156.25 1936.85,2157.02 1935.8,2157.79 1934.76,2158.55 1933.71,2159.32 1932.67,2160.08 1931.63,2160.84 
			1930.59,2161.6 1929.55,2162.36 1928.51,2163.11 1927.48,2163.87 1926.45,2164.62 1925.42,2165.37 1924.39,2166.12 
			1923.36,2166.87 1922.34,2167.62 1921.32,2168.36 1920.3,2169.11 1919.28,2169.85 1918.26,2170.59 1917.25,2171.33 
			1916.24,2172.07 1915.23,2172.81 1914.22,2173.54 1913.22,2174.28 1912.21,2175.02 1911.21,2175.75 1910.21,2176.48 
			1909.21,2177.22 1908.22,2177.95 1907.22,2178.68 1906.23,2179.41 1905.24,2180.14 1904.26,2180.86 1903.27,2181.59 
			1902.29,2182.32 1901.31,2183.05 1900.33,2183.77 1899.35,2184.5 1898.37,2185.22 1897.4,2185.95 1896.43,2186.67 
			1895.46,2187.39 1894.49,2188.12 1893.53,2188.84 1892.57,2189.56 1891.61,2190.29 1890.65,2191.01 1889.69,2191.73 
			1888.74,2192.45 1887.79,2193.17 1886.84,2193.89 1885.89,2194.62 1884.94,2195.34 1884,2196.06 1883.06,2196.78 1882.12,2197.5 
			1881.18,2198.22 1880.25,2198.95 1879.31,2199.67 1878.38,2200.39 1877.45,2201.11 1876.53,2201.83 1875.6,2202.56 
			1874.68,2203.28 1873.76,2204 1872.85,2204.73 1871.93,2205.45 1871.02,2206.17 1870.11,2206.9 1869.2,2207.62 1868.29,2208.35 
			1867.39,2209.07 1866.49,2209.8 1865.59,2210.53 1864.69,2211.26 1863.79,2211.98 1862.9,2212.71 1862.01,2213.44 
			1861.12,2214.17 1860.24,2214.9 1859.35,2215.64 1858.47,2216.37 1857.59,2217.1 1856.72,2217.83 1855.84,2218.57 1854.97,2219.3 
			1854.1,2220.04 1853.24,2220.78 1852.37,2221.52 1851.51,2222.25 1850.65,2222.99 1849.79,2223.74 1848.94,2224.48 
			1848.08,2225.22 1847.23,2225.96 1846.39,2226.71 1845.54,2227.46 1844.7,2228.2 1843.86,2228.95 1843.02,2229.7 1842.18,2230.45 
			1841.35,2231.2 1840.52,2231.95 1839.69,2232.71 1838.87,2233.46 1838.04,2234.22 1837.22,2234.98 1836.41,2235.74 
			1835.59,2236.5 1834.78,2237.26 1833.97,2238.02 1833.16,2238.79 1832.35,2239.55 1831.55,2240.32 1830.75,2241.09 
			1829.95,2241.86 1829.16,2242.63 1828.37,2243.4 1827.58,2244.18 1826.79,2244.95 1826.01,2245.73 1825.22,2246.51 
			1824.44,2247.29 1823.67,2248.07 1822.89,2248.86 1822.12,2249.64 1821.36,2250.43 1820.59,2251.22 1819.83,2252.01 
			1819.07,2252.8 1818.31,2253.59 1817.55,2254.39 1816.8,2255.19 1816.05,2255.99 1815.31,2256.79 1814.56,2257.59 
			1813.82,2258.39 1813.08,2259.2 1812.35,2260.01 1811.62,2260.82 1810.89,2261.63 1810.16,2262.44 1809.43,2263.26 
			1808.71,2264.07 1808,2264.89 1807.28,2265.71 1806.57,2266.54 1805.86,2267.36 1805.15,2268.19 1804.45,2269.02 1803.74,2269.85 
			1803.05,2270.68 1802.35,2271.52 1801.66,2272.36 1800.97,2273.19 1800.28,2274.04 1799.6,2274.88 1798.92,2275.72 
			1798.24,2276.57 1797.56,2277.42 1796.89,2278.27 1796.22,2279.13 1795.56,2279.98 1794.89,2280.84 1794.23,2281.7 
			1793.58,2282.57 1792.92,2283.43 1792.27,2284.3 1791.62,2285.17 1790.98,2286.04 1790.34,2286.92 1789.7,2287.79 
			1789.06,2288.67 1788.43,2289.55 1787.8,2290.44 1787.17,2291.32 1786.55,2292.21 1785.93,2293.1 1785.31,2293.99 1784.7,2294.89 
			1784.09,2295.79 1783.48,2296.69 1782.88,2297.59 1782.27,2298.5 1781.68,2299.41 1781.08,2300.32 1780.49,2301.23 
			1779.9,2302.14 1779.31,2303.06 1778.73,2303.98 1778.15,2304.91 1777.57,2305.83 1777,2306.76 1776.43,2307.69 1775.86,2308.63 
			1775.3,2309.56 1774.74,2310.5 1774.18,2311.44 1773.63,2312.39 1773.08,2313.34 1772.53,2314.29 1771.99,2315.24 
			1771.44,2316.19 1770.91,2317.15 1770.37,2318.11 1769.84,2319.08 1769.31,2320.04 1768.79,2321.01 1768.27,2321.99 
			1767.75,2322.96 1767.23,2323.94 1766.72,2324.92 1766.21,2325.9 1765.71,2326.89 1765.21,2327.88 1764.71,2328.87 
			1764.21,2329.87 1763.72,2330.87 1763.23,2331.87 1762.75,2332.87 1762.26,2333.88 1761.78,2334.89 1761.31,2335.91 
			1760.84,2336.92 1760.37,2337.94 1759.9,2338.97 1759.44,2339.99 1758.98,2341.02 1758.53,2342.05 1758.07,2343.09 
			1757.62,2344.13 1757.18,2345.17 1756.74,2346.22 1756.3,2347.26 1755.86,2348.32 1755.43,2349.37 1755,2350.43 1754.58,2351.49 
			1754.15,2352.56 1753.73,2353.63 1753.32,2354.7 1752.91,2355.77 1752.5,2356.85 1752.09,2357.93 1751.69,2359.02 
			1751.29,2360.11 1750.9,2361.2 1750.5,2362.3 1750.11,2363.4 1749.73,2364.5 1749.35,2365.61 1748.97,2366.72 1748.59,2367.83 
			1748.22,2368.95 1747.85,2370.07 1747.49,2371.19 1747.12,2372.32 1746.76,2373.45 1746.41,2374.59 1746.06,2375.73 
			1745.71,2376.87 1745.36,2378.02 1745.02,2379.17 1744.68,2380.32 1744.35,2381.48 1744.01,2382.65 1743.68,2383.81 
			1743.36,2384.98 1743.04,2386.16 1742.72,2387.33 1742.4,2388.52 1742.09,2389.7 1741.78,2390.89 1741.47,2392.09 
			1741.17,2393.29 1740.87,2394.49 1740.57,2395.69 1740.28,2396.91 1739.99,2398.12 1739.7,2399.34 1739.42,2400.56 
			1739.14,2401.79 1738.86,2403.02 1738.59,2404.26 1738.45,2404.88 1738.32,2405.5 1738.18,2406.12 1738.05,2406.74 
			1737.92,2407.37 1737.79,2407.99 1737.66,2408.62 1737.53,2409.25 1737.4,2409.87 1737.27,2410.5 1737.14,2411.13 
			1737.01,2411.77 1736.89,2412.4 1736.76,2413.03 1736.64,2413.67 1736.51,2414.3 1736.39,2414.94 1736.27,2415.58 
			1736.15,2416.22 1736.03,2416.86 1735.91,2417.5 1735.79,2418.15 1735.67,2418.79 1735.55,2419.43 1735.43,2420.08 
			1735.32,2420.73 1735.2,2421.38 1735.09,2422.03 1734.97,2422.68 1734.86,2423.33 1734.75,2423.99 1734.64,2424.64 
			1734.53,2425.3 1734.42,2425.95 1734.31,2426.61 1734.2,2427.27 1734.09,2427.93 1733.99,2428.59 1733.88,2429.26 
			1733.77,2429.92 1733.67,2430.59 1733.57,2431.25 1733.46,2431.92 1733.36,2432.59 1733.26,2433.26 1733.16,2433.93 
			1733.06,2434.61 1732.96,2435.28 1732.86,2435.96 1732.76,2436.63 1732.67,2437.31 1732.57,2437.99 1732.47,2438.67 
			1732.38,2439.35 1732.28,2440.04 1732.19,2440.72 1732.1,2441.41 1732.01,2442.09 1731.91,2442.78 1731.82,2443.47 
			1731.73,2444.16 1731.65,2444.85 1731.56,2445.55 1731.47,2446.24 1731.38,2446.94 1731.3,2447.63 1731.21,2448.33 
			1731.13,2449.03 1731.04,2449.73 1730.96,2450.44 1730.88,2451.14 1730.79,2451.85 1730.71,2452.55 1730.63,2453.26 
			1730.55,2453.97 1730.47,2454.68 1730.4,2455.39 1730.32,2456.11 1730.24,2456.82 1730.16,2457.54 1730.09,2458.26 
			1730.01,2458.98 1729.94,2459.7 1729.87,2460.42 1729.79,2461.14 1729.72,2461.87 1729.65,2462.59 1729.58,2463.32 
			1729.51,2464.05 1729.44,2464.78 1729.37,2465.51 1729.3,2466.24 1729.23,2466.98 1729.17,2467.71 1729.1,2468.45 
			1729.03,2469.19 1728.97,2469.93 1728.91,2470.67 1728.84,2471.42 1728.78,2472.16 1728.72,2472.91 1728.65,2473.66 
			1728.59,2474.4 1728.53,2475.16 1728.47,2475.91 1728.41,2476.66 1728.36,2477.42 1728.3,2478.17 1728.24,2478.93 
			1728.18,2479.69 1728.13,2480.45 1728.07,2481.22 1728.02,2481.98 1727.96,2482.75 1727.91,2483.51 1727.86,2484.28 
			1727.8,2485.05 1727.75,2485.83 1727.7,2486.6 1727.65,2487.37 1727.6,2488.15 1727.55,2488.93 1727.5,2489.71 1727.46,2490.49 
			1727.41,2491.28 1727.36,2492.06 1727.31,2492.85 1727.27,2493.63 1727.22,2494.42 1727.18,2495.22 1727.13,2496.01 
			1727.09,2496.8 1727.05,2497.6 1727.01,2498.4 1726.96,2499.2 1726.92,2500 1726.88,2500.8 1726.84,2501.61 1726.8,2502.41 
			1726.76,2503.22 1726.72,2504.03 1726.69,2504.84 1726.65,2505.65 1726.61,2506.47 1726.58,2507.29 1726.54,2508.1 
			1726.5,2508.92 1726.47,2509.74 1726.44,2510.57 1726.4,2511.39 1726.37,2512.22 1726.34,2513.05 1726.3,2513.88 1726.27,2514.71 
			1726.24,2515.54 1726.21,2516.38 1726.18,2517.22 1726.15,2518.06 1726.12,2518.9 1726.09,2519.74 1726.06,2520.59 
			1726.03,2521.43 1726.01,2522.28 1725.98,2523.13 1725.95,2523.98 1725.93,2524.84 1725.9,2525.69 1725.88,2526.55 
			1725.85,2527.41 1725.83,2528.27 1725.8,2529.13 1725.78,2530 1725.76,2530.86 1725.74,2531.73 1725.71,2532.6 1725.69,2533.48 
			1725.67,2534.35 1725.65,2535.23 1725.63,2536.1 1725.61,2536.98 1725.59,2537.87 1725.57,2538.75 1725.55,2539.64 
			1725.53,2540.52 1725.52,2541.41 1725.5,2542.31 1725.48,2543.2 1725.47,2544.1 1725.45,2544.99 1725.43,2545.89 1725.42,2546.8 
			1725.4,2547.7 1725.39,2548.61 1725.37,2549.51 1725.36,2550.42 1725.34,2551.33 1725.33,2552.25 1725.32,2553.16 
			1725.31,2554.08 1725.29,2555 1725.28,2555.93 1725.27,2556.85 1725.26,2557.78 1725.25,2558.7 1725.24,2559.64 1725.23,2560.57 
			1725.22,2561.5 1725.21,2562.44 1725.2,2563.38 1725.19,2564.32 1725.18,2565.26 1725.17,2566.21 1725.16,2567.16 
			1725.15,2568.11 1725.14,2569.06 1725.14,2570.01 1725.13,2570.97 1725.12,2571.93 1725.12,2572.89 1725.11,2573.85 
			1725.1,2574.82 1725.1,2575.78 1725.09,2576.75 1725.09,2577.73 1725.08,2578.7 1725.07,2579.68 1725.07,2580.65 1725.07,2581.64 
			1725.06,2582.62 1725.06,2583.6 1725.05,2584.59 1725.05,2585.58 1725.04,2586.57 1725.04,2587.57 1725.04,2588.57 
			1725.03,2589.57 1725.03,2590.57 1725.03,2591.57 1725.03,2592.58 1725.02,2593.59 1725.02,2594.6 1725.02,2595.61 
			1725.02,2596.63 1725.02,2597.65 1725.01,2598.67 1725.01,2599.69 1725.01,2600.72 1725.01,2601.75 1725.01,2602.78 
			1725.01,2603.81 1725.01,2604.84 1725.01,2605.88 1725,2606.92 1725,2607.97 1725,2609.01 1725,2610.06 1725,2611.11 
			1725,2612.16 1725,2613.22 1725,2614.28 1725,2615.34 1725,2616.4 1725,2617.47 1725,2618.53 1725,2619.61 1725,2620.68 
			1725,2621.76 1725,2622.83 1725,2623.92 1725,2625 		"/>
	</g>
	<g id="SPLINE_00000085236995013832968650000010836174105324252601_">
		<polyline class="st1" points="954.94,2068.39 955.57,2068.99 956.2,2069.6 956.83,2070.2 957.46,2070.8 958.09,2071.39 
			958.72,2071.99 959.35,2072.58 959.97,2073.17 960.6,2073.76 961.23,2074.35 961.85,2074.94 962.48,2075.52 963.1,2076.1 
			963.72,2076.68 964.35,2077.26 964.97,2077.84 965.59,2078.41 966.21,2078.98 966.83,2079.55 967.45,2080.12 968.06,2080.69 
			968.68,2081.26 969.3,2081.82 969.92,2082.38 970.53,2082.94 971.15,2083.5 971.76,2084.05 972.37,2084.61 972.99,2085.16 
			973.6,2085.71 974.21,2086.26 974.82,2086.81 975.43,2087.36 976.04,2087.9 976.65,2088.44 977.26,2088.98 977.87,2089.52 
			978.47,2090.06 979.08,2090.6 979.69,2091.13 980.29,2091.66 980.9,2092.19 981.5,2092.72 982.1,2093.25 982.71,2093.78 
			983.31,2094.3 983.91,2094.83 984.51,2095.35 985.11,2095.87 985.71,2096.39 986.31,2096.9 986.91,2097.42 987.51,2097.93 
			988.1,2098.45 988.7,2098.96 989.3,2099.47 989.89,2099.97 990.49,2100.48 991.08,2100.99 991.68,2101.49 992.27,2101.99 
			992.86,2102.49 993.45,2102.99 994.04,2103.49 994.64,2103.99 995.23,2104.48 995.82,2104.98 996.4,2105.47 996.99,2105.96 
			997.58,2106.45 998.17,2106.94 998.75,2107.43 999.34,2107.91 999.93,2108.4 1000.51,2108.88 1001.09,2109.36 1001.68,2109.84 
			1002.26,2110.32 1002.84,2110.8 1003.43,2111.28 1004.01,2111.75 1004.59,2112.23 1005.17,2112.7 1005.75,2113.17 
			1006.91,2114.11 1008.06,2115.05 1009.22,2115.98 1010.37,2116.9 1011.52,2117.82 1012.66,2118.74 1013.81,2119.65 
			1014.95,2120.56 1016.09,2121.46 1017.23,2122.36 1018.36,2123.26 1019.5,2124.15 1020.63,2125.03 1021.76,2125.92 
			1022.89,2126.8 1024.01,2127.67 1025.13,2128.54 1026.26,2129.41 1027.37,2130.27 1028.49,2131.13 1029.61,2131.99 
			1030.72,2132.84 1031.83,2133.69 1032.94,2134.53 1034.04,2135.37 1035.15,2136.21 1036.25,2137.05 1037.35,2137.88 
			1038.45,2138.71 1039.54,2139.53 1040.64,2140.36 1041.73,2141.18 1042.82,2141.99 1043.91,2142.81 1044.99,2143.62 
			1046.08,2144.43 1047.16,2145.23 1048.24,2146.03 1049.32,2146.83 1050.39,2147.63 1051.47,2148.43 1052.54,2149.22 
			1053.61,2150.01 1054.68,2150.8 1055.74,2151.58 1056.81,2152.37 1057.87,2153.15 1058.93,2153.93 1059.98,2154.7 
			1061.04,2155.48 1062.09,2156.25 1063.15,2157.02 1064.2,2157.79 1065.24,2158.55 1066.29,2159.32 1067.33,2160.08 
			1068.37,2160.84 1069.41,2161.6 1070.45,2162.36 1071.49,2163.11 1072.52,2163.87 1073.55,2164.62 1074.58,2165.37 
			1075.61,2166.12 1076.64,2166.87 1077.66,2167.62 1078.68,2168.36 1079.7,2169.11 1080.72,2169.85 1081.74,2170.59 
			1082.75,2171.33 1083.76,2172.07 1084.77,2172.81 1085.78,2173.54 1086.78,2174.28 1087.79,2175.02 1088.79,2175.75 
			1089.79,2176.48 1090.79,2177.22 1091.78,2177.95 1092.78,2178.68 1093.77,2179.41 1094.76,2180.14 1095.74,2180.86 
			1096.73,2181.59 1097.71,2182.32 1098.69,2183.05 1099.67,2183.77 1100.65,2184.5 1101.63,2185.22 1102.6,2185.95 
			1103.57,2186.67 1104.54,2187.39 1105.51,2188.12 1106.47,2188.84 1107.43,2189.56 1108.39,2190.29 1109.35,2191.01 
			1110.31,2191.73 1111.26,2192.45 1112.21,2193.17 1113.16,2193.89 1114.11,2194.62 1115.06,2195.34 1116,2196.06 1116.94,2196.78 
			1117.88,2197.5 1118.82,2198.22 1119.75,2198.95 1120.69,2199.67 1121.62,2200.39 1122.55,2201.11 1123.47,2201.83 
			1124.4,2202.56 1125.32,2203.28 1126.24,2204 1127.15,2204.73 1128.07,2205.45 1128.98,2206.17 1129.89,2206.9 1130.8,2207.62 
			1131.71,2208.35 1132.61,2209.07 1133.51,2209.8 1134.41,2210.53 1135.31,2211.26 1136.21,2211.98 1137.1,2212.71 
			1137.99,2213.44 1138.88,2214.17 1139.76,2214.9 1140.65,2215.64 1141.53,2216.37 1142.41,2217.1 1143.28,2217.83 
			1144.16,2218.57 1145.03,2219.3 1145.9,2220.04 1146.76,2220.78 1147.63,2221.52 1148.49,2222.25 1149.35,2222.99 
			1150.21,2223.74 1151.06,2224.48 1151.92,2225.22 1152.77,2225.96 1153.61,2226.71 1154.46,2227.46 1155.3,2228.2 
			1156.14,2228.95 1156.98,2229.7 1157.82,2230.45 1158.65,2231.2 1159.48,2231.95 1160.31,2232.71 1161.13,2233.46 
			1161.96,2234.22 1162.78,2234.98 1163.59,2235.74 1164.41,2236.5 1165.22,2237.26 1166.03,2238.02 1166.84,2238.79 
			1167.65,2239.55 1168.45,2240.32 1169.25,2241.09 1170.05,2241.86 1170.84,2242.63 1171.63,2243.4 1172.42,2244.18 
			1173.21,2244.95 1173.99,2245.73 1174.78,2246.51 1175.56,2247.29 1176.33,2248.07 1177.11,2248.86 1177.88,2249.64 
			1178.64,2250.43 1179.41,2251.22 1180.17,2252.01 1180.93,2252.8 1181.69,2253.59 1182.45,2254.39 1183.2,2255.19 
			1183.95,2255.99 1184.69,2256.79 1185.44,2257.59 1186.18,2258.39 1186.92,2259.2 1187.65,2260.01 1188.38,2260.82 
			1189.11,2261.63 1189.84,2262.44 1190.57,2263.26 1191.29,2264.07 1192,2264.89 1192.72,2265.71 1193.43,2266.54 1194.14,2267.36 
			1194.85,2268.19 1195.55,2269.02 1196.26,2269.85 1196.95,2270.68 1197.65,2271.52 1198.34,2272.36 1199.03,2273.19 
			1199.72,2274.04 1200.4,2274.88 1201.08,2275.72 1201.76,2276.57 1202.44,2277.42 1203.11,2278.27 1203.78,2279.13 
			1204.44,2279.98 1205.11,2280.84 1205.77,2281.7 1206.42,2282.57 1207.08,2283.43 1207.73,2284.3 1208.38,2285.17 
			1209.02,2286.04 1209.66,2286.92 1210.3,2287.79 1210.94,2288.67 1211.57,2289.55 1212.2,2290.44 1212.83,2291.32 
			1213.45,2292.21 1214.07,2293.1 1214.69,2293.99 1215.3,2294.89 1215.91,2295.79 1216.52,2296.69 1217.12,2297.59 1217.73,2298.5 
			1218.32,2299.41 1218.92,2300.32 1219.51,2301.23 1220.1,2302.14 1220.69,2303.06 1221.27,2303.98 1221.85,2304.91 
			1222.43,2305.83 1223,2306.76 1223.57,2307.69 1224.14,2308.63 1224.7,2309.56 1225.26,2310.5 1225.82,2311.44 1226.37,2312.39 
			1226.92,2313.34 1227.47,2314.29 1228.01,2315.24 1228.56,2316.19 1229.09,2317.15 1229.63,2318.11 1230.16,2319.08 
			1230.69,2320.04 1231.21,2321.01 1231.73,2321.99 1232.25,2322.96 1232.77,2323.94 1233.28,2324.92 1233.79,2325.9 
			1234.29,2326.89 1234.79,2327.88 1235.29,2328.87 1235.79,2329.87 1236.28,2330.87 1236.77,2331.87 1237.25,2332.87 
			1237.74,2333.88 1238.22,2334.89 1238.69,2335.91 1239.16,2336.92 1239.63,2337.94 1240.1,2338.97 1240.56,2339.99 
			1241.02,2341.02 1241.47,2342.05 1241.93,2343.09 1242.38,2344.13 1242.82,2345.17 1243.26,2346.22 1243.7,2347.26 
			1244.14,2348.32 1244.57,2349.37 1245,2350.43 1245.42,2351.49 1245.85,2352.56 1246.27,2353.63 1246.68,2354.7 1247.09,2355.77 
			1247.5,2356.85 1247.91,2357.93 1248.31,2359.02 1248.71,2360.11 1249.1,2361.2 1249.5,2362.3 1249.89,2363.4 1250.27,2364.5 
			1250.65,2365.61 1251.03,2366.72 1251.41,2367.83 1251.78,2368.95 1252.15,2370.07 1252.51,2371.19 1252.88,2372.32 
			1253.24,2373.45 1253.59,2374.59 1253.94,2375.73 1254.29,2376.87 1254.64,2378.02 1254.98,2379.17 1255.32,2380.32 
			1255.65,2381.48 1255.99,2382.65 1256.32,2383.81 1256.64,2384.98 1256.96,2386.16 1257.28,2387.33 1257.6,2388.52 
			1257.91,2389.7 1258.22,2390.89 1258.53,2392.09 1258.83,2393.29 1259.13,2394.49 1259.43,2395.69 1259.72,2396.91 
			1260.01,2398.12 1260.3,2399.34 1260.58,2400.56 1260.86,2401.79 1261.14,2403.02 1261.41,2404.26 1261.55,2404.88 
			1261.68,2405.5 1261.82,2406.12 1261.95,2406.74 1262.08,2407.37 1262.21,2407.99 1262.34,2408.62 1262.47,2409.25 
			1262.6,2409.87 1262.73,2410.5 1262.86,2411.13 1262.99,2411.77 1263.11,2412.4 1263.24,2413.03 1263.36,2413.67 1263.49,2414.3 
			1263.61,2414.94 1263.73,2415.58 1263.85,2416.22 1263.97,2416.86 1264.09,2417.5 1264.21,2418.15 1264.33,2418.79 
			1264.45,2419.43 1264.57,2420.08 1264.68,2420.73 1264.8,2421.38 1264.91,2422.03 1265.03,2422.68 1265.14,2423.33 
			1265.25,2423.99 1265.36,2424.64 1265.47,2425.3 1265.58,2425.95 1265.69,2426.61 1265.8,2427.27 1265.91,2427.93 
			1266.01,2428.59 1266.12,2429.26 1266.23,2429.92 1266.33,2430.59 1266.43,2431.25 1266.54,2431.92 1266.64,2432.59 
			1266.74,2433.26 1266.84,2433.93 1266.94,2434.61 1267.04,2435.28 1267.14,2435.96 1267.24,2436.63 1267.33,2437.31 
			1267.43,2437.99 1267.53,2438.67 1267.62,2439.35 1267.72,2440.04 1267.81,2440.72 1267.9,2441.41 1267.99,2442.09 
			1268.09,2442.78 1268.18,2443.47 1268.27,2444.16 1268.35,2444.85 1268.44,2445.55 1268.53,2446.24 1268.62,2446.94 
			1268.7,2447.63 1268.79,2448.33 1268.87,2449.03 1268.96,2449.73 1269.04,2450.44 1269.12,2451.14 1269.21,2451.85 
			1269.29,2452.55 1269.37,2453.26 1269.45,2453.97 1269.53,2454.68 1269.6,2455.39 1269.68,2456.11 1269.76,2456.82 
			1269.84,2457.54 1269.91,2458.26 1269.99,2458.98 1270.06,2459.7 1270.13,2460.42 1270.21,2461.14 1270.28,2461.87 
			1270.35,2462.59 1270.42,2463.32 1270.49,2464.05 1270.56,2464.78 1270.63,2465.51 1270.7,2466.24 1270.77,2466.98 
			1270.83,2467.71 1270.9,2468.45 1270.97,2469.19 1271.03,2469.93 1271.09,2470.67 1271.16,2471.42 1271.22,2472.16 
			1271.28,2472.91 1271.35,2473.66 1271.41,2474.4 1271.47,2475.16 1271.53,2475.91 1271.59,2476.66 1271.64,2477.42 
			1271.7,2478.17 1271.76,2478.93 1271.82,2479.69 1271.87,2480.45 1271.93,2481.22 1271.98,2481.98 1272.04,2482.75 
			1272.09,2483.51 1272.14,2484.28 1272.2,2485.05 1272.25,2485.83 1272.3,2486.6 1272.35,2487.37 1272.4,2488.15 1272.45,2488.93 
			1272.5,2489.71 1272.54,2490.49 1272.59,2491.28 1272.64,2492.06 1272.69,2492.85 1272.73,2493.63 1272.78,2494.42 
			1272.82,2495.22 1272.87,2496.01 1272.91,2496.8 1272.95,2497.6 1272.99,2498.4 1273.04,2499.2 1273.08,2500 1273.12,2500.8 
			1273.16,2501.61 1273.2,2502.41 1273.24,2503.22 1273.28,2504.03 1273.31,2504.84 1273.35,2505.65 1273.39,2506.47 
			1273.42,2507.29 1273.46,2508.1 1273.5,2508.92 1273.53,2509.74 1273.56,2510.57 1273.6,2511.39 1273.63,2512.22 1273.66,2513.05 
			1273.7,2513.88 1273.73,2514.71 1273.76,2515.54 1273.79,2516.38 1273.82,2517.22 1273.85,2518.06 1273.88,2518.9 
			1273.91,2519.74 1273.94,2520.59 1273.97,2521.43 1273.99,2522.28 1274.02,2523.13 1274.05,2523.98 1274.07,2524.84 
			1274.1,2525.69 1274.12,2526.55 1274.15,2527.41 1274.17,2528.27 1274.2,2529.13 1274.22,2530 1274.24,2530.86 1274.26,2531.73 
			1274.29,2532.6 1274.31,2533.48 1274.33,2534.35 1274.35,2535.23 1274.37,2536.1 1274.39,2536.98 1274.41,2537.87 
			1274.43,2538.75 1274.45,2539.64 1274.47,2540.52 1274.48,2541.41 1274.5,2542.31 1274.52,2543.2 1274.53,2544.1 1274.55,2544.99 
			1274.57,2545.89 1274.58,2546.8 1274.6,2547.7 1274.61,2548.61 1274.63,2549.51 1274.64,2550.42 1274.66,2551.33 1274.67,2552.25 
			1274.68,2553.16 1274.69,2554.08 1274.71,2555 1274.72,2555.93 1274.73,2556.85 1274.74,2557.78 1274.75,2558.7 1274.76,2559.64 
			1274.77,2560.57 1274.78,2561.5 1274.79,2562.44 1274.8,2563.38 1274.81,2564.32 1274.82,2565.26 1274.83,2566.21 
			1274.84,2567.16 1274.85,2568.11 1274.86,2569.06 1274.86,2570.01 1274.87,2570.97 1274.88,2571.93 1274.88,2572.89 
			1274.89,2573.85 1274.9,2574.82 1274.9,2575.78 1274.91,2576.75 1274.91,2577.73 1274.92,2578.7 1274.93,2579.68 1274.93,2580.65 
			1274.93,2581.64 1274.94,2582.62 1274.94,2583.6 1274.95,2584.59 1274.95,2585.58 1274.96,2586.57 1274.96,2587.57 
			1274.96,2588.57 1274.97,2589.57 1274.97,2590.57 1274.97,2591.57 1274.97,2592.58 1274.98,2593.59 1274.98,2594.6 
			1274.98,2595.61 1274.98,2596.63 1274.98,2597.65 1274.99,2598.67 1274.99,2599.69 1274.99,2600.72 1274.99,2601.75 
			1274.99,2602.78 1274.99,2603.81 1274.99,2604.84 1274.99,2605.88 1275,2606.92 1275,2607.97 1275,2609.01 1275,2610.06 
			1275,2611.11 1275,2612.16 1275,2613.22 1275,2614.28 1275,2615.34 1275,2616.4 1275,2617.47 1275,2618.53 1275,2619.61 
			1275,2620.68 1275,2621.76 1275,2622.83 1275,2623.92 1275,2625 		"/>
	</g>
	<g id="SPLINE_00000060737027961268026430000012601927493235416494_">
		<path class="st2" d="M1275,2983.03V2625v-1.08v-1.08v-1.08v-1.08l0-1.07l0-1.07l0-1.07l0-1.07l0-1.06l0-1.06l0-1.06l0-1.06l0-1.05
			l0-1.05l0-1.05l0-1.05l0-1.04l0-1.04l0-1.04l0-1.04l0-1.03l0-1.03l0-1.03l0-1.03l0-1.02l0-1.02l0-1.02l0-1.02l0-1.01l0-1.01
			l0-1.01l0-1.01l0-1l0-1l0-1l0-1l0-0.99l0-0.99l0-0.99l0-0.99l0-0.99l0-0.98l0-0.98l0-0.98l-0.01-0.98l-0.01-0.97l-0.01-0.97
			l-0.01-0.97l-0.01-0.97l-0.01-0.97l-0.01-0.96l-0.01-0.96l-0.01-0.96l-0.01-0.96l-0.01-0.95l-0.01-0.95l-0.01-0.95l-0.01-0.95
			l-0.01-0.95l-0.01-0.94l-0.01-0.94l-0.01-0.94l-0.01-0.94l-0.01-0.93l-0.01-0.93l-0.01-0.93l-0.01-0.93l-0.01-0.93l-0.01-0.92
			l-0.01-0.92l-0.01-0.92l-0.01-0.92l-0.01-0.92l-0.01-0.91l-0.01-0.91l-0.01-0.91l-0.01-0.91l-0.01-0.91l-0.02-0.9l-0.02-0.9
			l-0.02-0.9l-0.02-0.9l-0.02-0.9l-0.02-0.89l-0.02-0.89l-0.02-0.89l-0.02-0.89l-0.02-0.89l-0.02-0.88l-0.02-0.88l-0.02-0.88
			l-0.02-0.88l-0.02-0.88l-0.02-0.87l-0.02-0.87l-0.02-0.87l-0.02-0.87l-0.02-0.87l-0.02-0.86l-0.02-0.86l-0.02-0.86l-0.02-0.86
			l-0.03-0.86l-0.03-0.86l-0.03-0.85l-0.03-0.85l-0.03-0.85l-0.03-0.85l-0.03-0.85l-0.03-0.84l-0.03-0.84l-0.03-0.84l-0.03-0.84
			l-0.03-0.84l-0.03-0.84l-0.03-0.83l-0.03-0.83l-0.03-0.83l-0.03-0.83l-0.03-0.83l-0.03-0.82l-0.03-0.82l-0.03-0.82l-0.04-0.82
			l-0.04-0.82l-0.04-0.82l-0.04-0.81l-0.04-0.81l-0.04-0.81l-0.04-0.81l-0.04-0.81l-0.04-0.81l-0.04-0.8l-0.04-0.8l-0.04-0.8
			l-0.04-0.8l-0.04-0.8l-0.04-0.8l-0.04-0.79l-0.04-0.79l-0.04-0.79l-0.05-0.79l-0.05-0.79l-0.05-0.79l-0.05-0.78l-0.05-0.78
			l-0.05-0.78l-0.05-0.78l-0.05-0.78l-0.05-0.78l-0.05-0.78l-0.05-0.77l-0.05-0.77l-0.05-0.77l-0.05-0.77l-0.05-0.77l-0.05-0.77
			l-0.05-0.76l-0.06-0.76l-0.06-0.76l-0.06-0.76l-0.06-0.76l-0.06-0.76l-0.06-0.76l-0.06-0.75l-0.06-0.75l-0.06-0.75l-0.06-0.75
			l-0.06-0.75l-0.06-0.75l-0.06-0.74l-0.06-0.74l-0.06-0.74l-0.06-0.74l-0.07-0.74l-0.07-0.74l-0.07-0.74l-0.07-0.73l-0.07-0.73
			l-0.07-0.73l-0.07-0.73l-0.07-0.73l-0.07-0.73l-0.07-0.73l-0.07-0.72l-0.07-0.72l-0.07-0.72l-0.07-0.72l-0.07-0.72l-0.08-0.72
			l-0.08-0.72l-0.08-0.71l-0.08-0.71l-0.08-0.71l-0.08-0.71l-0.08-0.71l-0.08-0.71l-0.08-0.71l-0.08-0.71l-0.08-0.7l-0.08-0.7
			l-0.08-0.7l-0.08-0.7l-0.09-0.7l-0.09-0.7l-0.09-0.7l-0.09-0.69l-0.09-0.69l-0.09-0.69l-0.09-0.69l-0.09-0.69l-0.09-0.69
			l-0.09-0.69l-0.09-0.69l-0.09-0.68l-0.09-0.68l-0.09-0.68l-0.1-0.68l-0.1-0.68l-0.1-0.68l-0.1-0.68l-0.1-0.68l-0.1-0.67l-0.1-0.67
			l-0.1-0.67l-0.1-0.67l-0.1-0.67l-0.1-0.67l-0.1-0.67l-0.1-0.67l-0.11-0.66l-0.11-0.66l-0.11-0.66l-0.11-0.66l-0.11-0.66
			l-0.11-0.66l-0.11-0.66l-0.11-0.66l-0.11-0.65l-0.11-0.65l-0.11-0.65l-0.11-0.65l-0.11-0.65l-0.12-0.65l-0.12-0.65l-0.12-0.65
			l-0.12-0.65l-0.12-0.64l-0.12-0.64l-0.12-0.64l-0.12-0.64l-0.12-0.64l-0.12-0.64l-0.12-0.64l-0.12-0.64l-0.12-0.64l-0.13-0.63
			l-0.13-0.63l-0.13-0.63l-0.13-0.63l-0.13-0.63l-0.13-0.63l-0.13-0.63l-0.13-0.63l-0.13-0.62l-0.13-0.62l-0.13-0.62l-0.13-0.62
			l-0.13-0.62l-0.14-0.62l-0.27-1.24l-0.28-1.23l-0.28-1.23l-0.28-1.22l-0.29-1.22l-0.29-1.21l-0.29-1.21l-0.3-1.21l-0.3-1.2
			l-0.3-1.2l-0.31-1.19l-0.31-1.19l-0.31-1.19l-0.32-1.18l-0.32-1.18l-0.32-1.17l-0.33-1.17l-0.33-1.17l-0.33-1.16l-0.34-1.16
			l-0.34-1.15l-0.34-1.15l-0.35-1.15l-0.35-1.14l-0.35-1.14l-0.36-1.14l-0.36-1.13l-0.36-1.13l-0.37-1.12l-0.37-1.12l-0.37-1.12
			l-0.38-1.11l-0.38-1.11l-0.38-1.11l-0.39-1.1l-0.39-1.1l-0.39-1.1l-0.4-1.09l-0.4-1.09l-0.4-1.09l-0.41-1.08l-0.41-1.08
			l-0.41-1.08l-0.42-1.07l-0.42-1.07l-0.42-1.07l-0.43-1.06l-0.43-1.06l-0.43-1.06l-0.44-1.05l-0.44-1.05l-0.44-1.05l-0.45-1.04
			l-0.45-1.04l-0.45-1.04l-0.46-1.03l-0.46-1.03l-0.46-1.03l-0.47-1.02l-0.47-1.02l-0.47-1.02l-0.48-1.01l-0.48-1.01l-0.48-1.01
			l-0.49-1l-0.49-1l-0.49-1l-0.5-1l-0.5-0.99l-0.5-0.99l-0.51-0.99l-0.51-0.98l-0.51-0.98l-0.52-0.98l-0.52-0.98l-0.52-0.97
			l-0.52-0.97l-0.53-0.97l-0.53-0.96l-0.53-0.96l-0.54-0.96l-0.54-0.96l-0.54-0.95l-0.55-0.95l-0.55-0.95l-0.55-0.94l-0.56-0.94
			l-0.56-0.94l-0.56-0.94l-0.57-0.93l-0.57-0.93l-0.57-0.93l-0.58-0.93l-0.58-0.92l-0.58-0.92l-0.59-0.92l-0.59-0.92l-0.59-0.91
			l-0.6-0.91l-0.6-0.91l-0.6-0.91l-0.6-0.9l-0.61-0.9l-0.61-0.9l-0.61-0.9l-0.62-0.89l-0.62-0.89l-0.62-0.89l-0.63-0.89l-0.63-0.88
			l-0.63-0.88l-0.64-0.88l-0.64-0.88l-0.64-0.87l-0.64-0.87l-0.65-0.87l-0.65-0.87l-0.65-0.87l-0.66-0.86l-0.66-0.86l-0.66-0.86
			l-0.67-0.86l-0.67-0.85l-0.67-0.85l-0.67-0.85l-0.68-0.85l-0.68-0.85l-0.68-0.84l-0.69-0.84l-0.69-0.84l-0.69-0.84l-0.7-0.84
			l-0.7-0.83l-0.7-0.83l-0.7-0.83l-0.71-0.83l-0.71-0.82l-0.71-0.82l-0.72-0.82l-0.72-0.82l-0.72-0.82l-0.72-0.82l-0.73-0.81
			l-0.73-0.81l-0.73-0.81l-0.74-0.81l-0.74-0.81l-0.74-0.8l-0.74-0.8l-0.75-0.8l-0.75-0.8l-0.75-0.8l-0.75-0.8l-0.76-0.79
			l-0.76-0.79l-0.76-0.79l-0.77-0.79l-0.77-0.79l-0.77-0.79l-0.77-0.78l-0.78-0.78l-0.78-0.78l-0.78-0.78l-0.78-0.78l-0.79-0.78
			l-0.79-0.77l-0.79-0.77l-0.79-0.77l-0.8-0.77l-0.8-0.77l-0.8-0.77l-0.81-0.77l-0.81-0.76l-0.81-0.76l-0.81-0.76l-0.82-0.76
			l-0.82-0.76l-0.82-0.76l-0.82-0.76l-0.83-0.76l-0.83-0.75l-0.83-0.75l-0.83-0.75l-0.84-0.75l-0.84-0.75l-0.84-0.75l-0.84-0.75
			l-0.85-0.75l-0.85-0.74l-0.85-0.74l-0.85-0.74l-0.85-0.74l-0.86-0.74l-0.86-0.74l-0.86-0.74l-0.86-0.74l-0.87-0.74l-0.87-0.74
			l-0.87-0.74l-0.87-0.73l-0.88-0.73l-0.88-0.73l-0.88-0.73l-0.88-0.73l-0.89-0.73l-0.89-0.73l-0.89-0.73l-0.89-0.73l-0.89-0.73
			l-0.9-0.73l-0.9-0.73l-0.9-0.73l-0.9-0.73l-0.91-0.73l-0.91-0.73l-0.91-0.72l-0.91-0.72l-0.92-0.72l-0.92-0.72l-0.92-0.72
			l-0.92-0.72l-0.92-0.72l-0.93-0.72l-0.93-0.72l-0.93-0.72l-0.93-0.72l-0.93-0.72l-0.94-0.72l-0.94-0.72l-0.94-0.72l-0.94-0.72
			l-0.95-0.72l-0.95-0.72l-0.95-0.72l-0.95-0.72l-0.95-0.72l-0.96-0.72l-0.96-0.72l-0.96-0.72l-0.96-0.72l-0.96-0.72l-0.97-0.72
			l-0.97-0.72l-0.97-0.72l-0.97-0.72l-0.97-0.73l-0.98-0.73l-0.98-0.73l-0.98-0.73l-0.98-0.73l-0.99-0.73l-0.99-0.73l-0.99-0.73
			l-0.99-0.73l-0.99-0.73l-1-0.73l-1-0.73l-1-0.73l-1-0.73l-1-0.74l-1.01-0.74l-1.01-0.74l-1.01-0.74l-1.01-0.74l-1.01-0.74
			l-1.02-0.74l-1.02-0.74l-1.02-0.74l-1.02-0.75l-1.02-0.75l-1.03-0.75l-1.03-0.75l-1.03-0.75l-1.03-0.75l-1.03-0.75l-1.04-0.76
			l-1.04-0.76l-1.04-0.76l-1.04-0.76l-1.04-0.76l-1.05-0.76l-1.05-0.77l-1.05-0.77l-1.05-0.77l-1.05-0.77l-1.06-0.77l-1.06-0.78
			l-1.06-0.78l-1.06-0.78l-1.06-0.78l-1.07-0.79l-1.07-0.79l-1.07-0.79l-1.07-0.79l-1.07-0.79l-1.08-0.8l-1.08-0.8l-1.08-0.8
			l-1.08-0.81l-1.08-0.81l-1.09-0.81l-1.09-0.81l-1.09-0.82l-1.09-0.82l-1.09-0.82l-1.1-0.83l-1.1-0.83l-1.1-0.83l-1.1-0.84
			l-1.1-0.84l-1.11-0.84l-1.11-0.85l-1.11-0.85l-1.11-0.85l-1.11-0.86l-1.12-0.86l-1.12-0.86l-1.12-0.87l-1.12-0.87l-1.13-0.87
			l-1.13-0.88l-1.13-0.88l-1.13-0.89l-1.13-0.89l-1.14-0.89l-1.14-0.9l-1.14-0.9l-1.14-0.91l-1.14-0.91l-1.15-0.92l-1.15-0.92
			l-1.15-0.93l-1.15-0.93l-1.16-0.94l-1.16-0.94l-0.58-0.47l-0.58-0.47l-0.58-0.47l-0.58-0.48l-0.58-0.48l-0.58-0.48l-0.58-0.48
			l-0.58-0.48l-0.58-0.48l-0.58-0.48l-0.59-0.48l-0.59-0.49l-0.59-0.49l-0.59-0.49l-0.59-0.49l-0.59-0.49l-0.59-0.49l-0.59-0.49
			l-0.59-0.5l-0.59-0.5l-0.59-0.5l-0.59-0.5l-0.59-0.5l-0.59-0.5l-0.59-0.5l-0.59-0.51l-0.59-0.51l-0.6-0.51l-0.6-0.51l-0.6-0.51
			l-0.6-0.51l-0.6-0.51l-0.6-0.52l-0.6-0.52l-0.6-0.52l-0.6-0.52l-0.6-0.52l-0.6-0.52l-0.6-0.52l-0.6-0.53l-0.6-0.53l-0.6-0.53
			l-0.6-0.53l-0.61-0.53l-0.61-0.53l-0.61-0.54l-0.61-0.54l-0.61-0.54l-0.61-0.54l-0.61-0.54l-0.61-0.54l-0.61-0.55l-0.61-0.55
			l-0.61-0.55l-0.61-0.55l-0.61-0.55l-0.61-0.55l-0.61-0.56l-0.61-0.56l-0.62-0.56l-0.62-0.56l-0.62-0.56l-0.62-0.57l-0.62-0.57
			l-0.62-0.57l-0.62-0.57l-0.62-0.57l-0.62-0.57l-0.62-0.58l-0.62-0.58l-0.62-0.58l-0.62-0.58l-0.62-0.58l-0.63-0.59l-0.63-0.59
			l-0.63-0.59l-0.63-0.59l-0.63-0.59l-0.63-0.6l-0.63-0.6l-0.63-0.6l-0.63-0.6l-0.63-0.6c0,0-0.63-0.61-0.63-0.61
			c-7.94-7.61-15.71-15.39-23.33-23.32c-301.03-313.91-290.59-812.42,23.33-1113.45s812.42-290.59,1113.45,23.33
			s290.59,812.42-23.32,1113.45l-0.63,0.61l-0.63,0.6l-0.63,0.6l-0.63,0.6l-0.63,0.6l-0.63,0.6l-0.63,0.59l-0.63,0.59l-0.63,0.59
			l-0.63,0.59l-0.63,0.59l-0.62,0.58l-0.62,0.58l-0.62,0.58l-0.62,0.58l-0.62,0.58l-0.62,0.57l-0.62,0.57l-0.62,0.57l-0.62,0.57
			l-0.62,0.57l-0.62,0.57l-0.62,0.56l-0.62,0.56l-0.62,0.56l-0.61,0.56l-0.61,0.56l-0.61,0.55l-0.61,0.55l-0.61,0.55l-0.61,0.55
			l-0.61,0.55l-0.61,0.55l-0.61,0.54l-0.61,0.54l-0.61,0.54l-0.61,0.54l-0.61,0.54l-0.61,0.54l-0.61,0.53l-0.61,0.53l-0.6,0.53
			l-0.6,0.53l-0.6,0.53l-0.6,0.53l-0.6,0.52l-0.6,0.52l-0.6,0.52l-0.6,0.52l-0.6,0.52l-0.6,0.52l-0.6,0.52l-0.6,0.51l-0.6,0.51
			l-0.6,0.51l-0.6,0.51l-0.6,0.51l-0.59,0.51l-0.59,0.51l-0.59,0.5l-0.59,0.5l-0.59,0.5l-0.59,0.5l-0.59,0.5l-0.59,0.5l-0.59,0.5
			l-0.59,0.49l-0.59,0.49l-0.59,0.49l-0.59,0.49l-0.59,0.49l-0.59,0.49l-0.59,0.49l-0.59,0.48l-0.58,0.48l-0.58,0.48l-0.58,0.48
			l-0.58,0.48l-0.58,0.48l-0.58,0.48l-0.58,0.48l-0.58,0.47l-0.58,0.47l-0.58,0.47l-1.16,0.94l-1.16,0.94l-1.15,0.93l-1.15,0.93
			l-1.15,0.92l-1.15,0.92l-1.14,0.91l-1.14,0.91l-1.14,0.9l-1.14,0.9l-1.14,0.89l-1.13,0.89l-1.13,0.89l-1.13,0.88l-1.13,0.88
			l-1.13,0.87l-1.12,0.87l-1.12,0.87l-1.12,0.86l-1.12,0.86l-1.11,0.86l-1.11,0.85l-1.11,0.85l-1.11,0.85l-1.11,0.84l-1.1,0.84
			l-1.1,0.84l-1.1,0.83l-1.1,0.83l-1.1,0.83l-1.09,0.82l-1.09,0.82l-1.09,0.82l-1.09,0.81l-1.09,0.81l-1.08,0.81l-1.08,0.81
			l-1.08,0.8l-1.08,0.8l-1.08,0.8l-1.07,0.79l-1.07,0.79l-1.07,0.79l-1.07,0.79l-1.07,0.79l-1.06,0.78l-1.06,0.78l-1.06,0.78
			l-1.06,0.78l-1.06,0.77l-1.05,0.77l-1.05,0.77l-1.05,0.77l-1.05,0.77l-1.05,0.76l-1.04,0.76l-1.04,0.76l-1.04,0.76l-1.04,0.76
			l-1.04,0.76l-1.03,0.75l-1.03,0.75l-1.03,0.75l-1.03,0.75l-1.03,0.75l-1.02,0.75l-1.02,0.75l-1.02,0.74l-1.02,0.74l-1.02,0.74
			l-1.01,0.74l-1.01,0.74l-1.01,0.74l-1.01,0.74l-1.01,0.74l-1,0.74l-1,0.73l-1,0.73l-1,0.73l-1,0.73l-0.99,0.73l-0.99,0.73
			l-0.99,0.73l-0.99,0.73l-0.99,0.73l-0.98,0.73l-0.98,0.73l-0.98,0.73l-0.98,0.73l-0.97,0.73l-0.97,0.72l-0.97,0.72l-0.97,0.72
			l-0.97,0.72l-0.96,0.72l-0.96,0.72l-0.96,0.72l-0.96,0.72l-0.96,0.72l-0.95,0.72l-0.95,0.72l-0.95,0.72l-0.95,0.72l-0.95,0.72
			l-0.94,0.72l-0.94,0.72l-0.94,0.72l-0.94,0.72l-0.93,0.72l-0.93,0.72l-0.93,0.72l-0.93,0.72l-0.93,0.72l-0.92,0.72l-0.92,0.72
			l-0.92,0.72l-0.92,0.72l-0.92,0.72l-0.91,0.72l-0.91,0.72l-0.91,0.73l-0.91,0.73l-0.9,0.73l-0.9,0.73l-0.9,0.73l-0.9,0.73
			l-0.89,0.73l-0.89,0.73l-0.89,0.73l-0.89,0.73l-0.89,0.73l-0.88,0.73l-0.88,0.73l-0.88,0.73l-0.88,0.73l-0.87,0.73l-0.87,0.74
			l-0.87,0.74l-0.87,0.74l-0.86,0.74l-0.86,0.74l-0.86,0.74l-0.86,0.74l-0.85,0.74l-0.85,0.74l-0.85,0.74l-0.85,0.74l-0.85,0.75
			l-0.84,0.75l-0.84,0.75l-0.84,0.75l-0.84,0.75l-0.83,0.75l-0.83,0.75l-0.83,0.75l-0.83,0.76l-0.82,0.76l-0.82,0.76l-0.82,0.76
			l-0.82,0.76l-0.81,0.76l-0.81,0.76l-0.81,0.76l-0.81,0.77l-0.8,0.77l-0.8,0.77l-0.8,0.77l-0.79,0.77l-0.79,0.77l-0.79,0.77
			l-0.79,0.78l-0.78,0.78l-0.78,0.78l-0.78,0.78l-0.78,0.78l-0.77,0.78l-0.77,0.79l-0.77,0.79l-0.77,0.79l-0.76,0.79l-0.76,0.79
			l-0.76,0.79l-0.75,0.8l-0.75,0.8l-0.75,0.8l-0.75,0.8l-0.74,0.8l-0.74,0.8l-0.74,0.81l-0.74,0.81l-0.73,0.81l-0.73,0.81
			l-0.73,0.81l-0.72,0.82l-0.72,0.82l-0.72,0.82l-0.72,0.82l-0.71,0.82l-0.71,0.82l-0.71,0.83l-0.7,0.83l-0.7,0.83l-0.7,0.83
			l-0.7,0.84l-0.69,0.84l-0.69,0.84l-0.69,0.84l-0.68,0.84l-0.68,0.85l-0.68,0.85l-0.67,0.85l-0.67,0.85l-0.67,0.85l-0.67,0.86
			l-0.66,0.86l-0.66,0.86l-0.66,0.86l-0.65,0.87l-0.65,0.87l-0.65,0.87l-0.64,0.87l-0.64,0.87l-0.64,0.88l-0.64,0.88l-0.63,0.88
			l-0.63,0.88l-0.63,0.89l-0.62,0.89l-0.62,0.89l-0.62,0.89l-0.61,0.9l-0.61,0.9l-0.61,0.9l-0.6,0.9l-0.6,0.91l-0.6,0.91l-0.6,0.91
			l-0.59,0.91l-0.59,0.92l-0.59,0.92l-0.58,0.92l-0.58,0.92l-0.58,0.93l-0.57,0.93l-0.57,0.93l-0.57,0.93l-0.56,0.94l-0.56,0.94
			l-0.56,0.94l-0.55,0.94l-0.55,0.95l-0.55,0.95l-0.54,0.95l-0.54,0.96l-0.54,0.96l-0.53,0.96l-0.53,0.96l-0.53,0.97l-0.52,0.97
			l-0.52,0.97l-0.52,0.98l-0.52,0.98l-0.51,0.98l-0.51,0.98l-0.51,0.99l-0.5,0.99l-0.5,0.99l-0.5,1l-0.49,1l-0.49,1l-0.49,1
			l-0.48,1.01l-0.48,1.01l-0.48,1.01l-0.47,1.02l-0.47,1.02l-0.47,1.02l-0.46,1.03l-0.46,1.03l-0.46,1.03l-0.45,1.04l-0.45,1.04
			l-0.45,1.04l-0.44,1.05l-0.44,1.05l-0.44,1.05l-0.43,1.06l-0.43,1.06l-0.43,1.06l-0.42,1.07l-0.42,1.07l-0.42,1.07l-0.41,1.08
			l-0.41,1.08l-0.41,1.08l-0.4,1.09l-0.4,1.09l-0.4,1.09l-0.39,1.1l-0.39,1.1l-0.39,1.1l-0.38,1.11l-0.38,1.11l-0.38,1.11
			l-0.37,1.12l-0.37,1.12l-0.37,1.12l-0.36,1.13l-0.36,1.13l-0.36,1.14l-0.35,1.14l-0.35,1.14l-0.35,1.15l-0.34,1.15l-0.34,1.15
			l-0.34,1.16l-0.33,1.16l-0.33,1.17l-0.33,1.17l-0.32,1.17l-0.32,1.18l-0.32,1.18l-0.31,1.19l-0.31,1.19l-0.31,1.19l-0.3,1.2
			l-0.3,1.2l-0.3,1.21l-0.29,1.21l-0.29,1.21l-0.29,1.22l-0.28,1.22l-0.28,1.23l-0.28,1.23l-0.27,1.24l-0.14,0.62l-0.13,0.62
			l-0.13,0.62l-0.13,0.62l-0.13,0.62l-0.13,0.62l-0.13,0.63l-0.13,0.63l-0.13,0.63l-0.13,0.63l-0.13,0.63l-0.13,0.63l-0.13,0.63
			l-0.13,0.63l-0.12,0.64l-0.12,0.64l-0.12,0.64l-0.12,0.64l-0.12,0.64l-0.12,0.64l-0.12,0.64l-0.12,0.64l-0.12,0.64l-0.12,0.65
			l-0.12,0.65l-0.12,0.65l-0.12,0.65l-0.11,0.65l-0.11,0.65l-0.11,0.65l-0.11,0.65l-0.11,0.65l-0.11,0.66l-0.11,0.66l-0.11,0.66
			l-0.11,0.66l-0.11,0.66l-0.11,0.66l-0.11,0.66l-0.11,0.66l-0.1,0.67l-0.1,0.67l-0.1,0.67l-0.1,0.67l-0.1,0.67l-0.1,0.67l-0.1,0.67
			l-0.1,0.67l-0.1,0.68l-0.1,0.68l-0.1,0.68l-0.1,0.68l-0.1,0.68l-0.09,0.68l-0.09,0.68l-0.09,0.68l-0.09,0.69l-0.09,0.69
			l-0.09,0.69l-0.09,0.69l-0.09,0.69l-0.09,0.69l-0.09,0.69l-0.09,0.69l-0.09,0.7l-0.09,0.7l-0.09,0.7l-0.08,0.7l-0.08,0.7
			l-0.08,0.7l-0.08,0.7l-0.08,0.71l-0.08,0.71l-0.08,0.71l-0.08,0.71l-0.08,0.71l-0.08,0.71l-0.08,0.71l-0.08,0.71l-0.08,0.72
			l-0.08,0.72l-0.07,0.72l-0.07,0.72l-0.07,0.72l-0.07,0.72l-0.07,0.72l-0.07,0.73l-0.07,0.73l-0.07,0.73l-0.07,0.73l-0.07,0.73
			l-0.07,0.73l-0.07,0.73l-0.07,0.74l-0.07,0.74l-0.07,0.74l-0.06,0.74l-0.06,0.74l-0.06,0.74l-0.06,0.74l-0.06,0.75l-0.06,0.75
			l-0.06,0.75l-0.06,0.75l-0.06,0.75l-0.06,0.75l-0.06,0.76l-0.06,0.76l-0.06,0.76l-0.06,0.76l-0.06,0.76l-0.06,0.76l-0.05,0.76
			l-0.05,0.77l-0.05,0.77l-0.05,0.77l-0.05,0.77l-0.05,0.77l-0.05,0.77l-0.05,0.78l-0.05,0.78l-0.05,0.78l-0.05,0.78l-0.05,0.78
			l-0.05,0.78l-0.05,0.78l-0.05,0.79l-0.05,0.79l-0.05,0.79l-0.04,0.79l-0.04,0.79l-0.04,0.79l-0.04,0.8l-0.04,0.8l-0.04,0.8
			l-0.04,0.8l-0.04,0.8l-0.04,0.8l-0.04,0.81l-0.04,0.81l-0.04,0.81l-0.04,0.81l-0.04,0.81l-0.04,0.81l-0.04,0.82l-0.04,0.82
			l-0.04,0.82l-0.03,0.82l-0.03,0.82l-0.03,0.82l-0.03,0.83l-0.03,0.83l-0.03,0.83l-0.03,0.83l-0.03,0.83l-0.03,0.84l-0.03,0.84
			l-0.03,0.84l-0.03,0.84l-0.03,0.84l-0.03,0.84l-0.03,0.85l-0.03,0.85l-0.03,0.85l-0.03,0.85l-0.03,0.85l-0.03,0.86l-0.03,0.86
			l-0.02,0.86l-0.02,0.86l-0.02,0.86l-0.02,0.86l-0.02,0.87l-0.02,0.87l-0.02,0.87l-0.02,0.87l-0.02,0.87l-0.02,0.88l-0.02,0.88
			l-0.02,0.88l-0.02,0.88l-0.02,0.88l-0.02,0.89l-0.02,0.89l-0.02,0.89l-0.02,0.89l-0.02,0.89l-0.02,0.9l-0.02,0.9l-0.02,0.9
			l-0.02,0.9l-0.02,0.9l-0.01,0.91l-0.01,0.91l-0.01,0.91l-0.01,0.91l-0.01,0.91l-0.01,0.92l-0.01,0.92l-0.01,0.92l-0.01,0.92
			l-0.01,0.92l-0.01,0.93l-0.01,0.93l-0.01,0.93l-0.01,0.93l-0.01,0.93l-0.01,0.94l-0.01,0.94l-0.01,0.94l-0.01,0.94l-0.01,0.95
			l-0.01,0.95l-0.01,0.95l-0.01,0.95l-0.01,0.95l-0.01,0.96l-0.01,0.96l-0.01,0.96l-0.01,0.96l-0.01,0.97l-0.01,0.97l-0.01,0.97
			l-0.01,0.97l-0.01,0.97l-0.01,0.98l0,0.98l0,0.98l0,0.98l0,0.99l0,0.99l0,0.99l0,0.99l0,0.99l0,1l0,1l0,1l0,1l0,1.01l0,1.01
			l0,1.01l0,1.01l0,1.02l0,1.02l0,1.02l0,1.02l0,1.03l0,1.03l0,1.03l0,1.03l0,1.04l0,1.04l0,1.04l0,1.04l0,1.05l0,1.05l0,1.05
			l0,1.05l0,1.06l0,1.06l0,1.06l0,1.06l0,1.07l0,1.07l0,1.07l0,1.07v1.08v1.08v1.08v1.08c0,0,0,358.03,0,358.03
			C1575.85,3005.66,1424.15,3005.66,1275,2983.03z"/>
	</g>
</g>
</svg>
