<svg id="Layer_1" data-name="Layer 1" xmlns="http://www.w3.org/2000/svg" viewBox="0 0 930.45 930.85"><defs><style>.cls-1{fill:#c61432;}.cls-2{fill:#f0f0f2;}</style></defs><circle class="cls-1" cx="465.23" cy="465.23" r="465.23"/><path class="cls-2" d="M504.47,257.84c-137.45-2.48-250.15,110.78-247,248.21A242.47,242.47,0,0,0,376.64,709.32a111.86,111.86,0,0,1,54.62,96.34V960.12a.53.53,0,0,0,.45.52,469.78,469.78,0,0,0,136.58,0,.53.53,0,0,0,.45-.52V805.66a112.24,112.24,0,0,1,54.92-96.52A242.44,242.44,0,0,0,742.6,500.4C742.6,367.91,636.39,260.22,504.47,257.84Z" transform="translate(-34.77 -34.77)"/></svg>